<svg width="2800" height="841" viewBox="0 0 2800 841" fill="none" xmlns="http://www.w3.org/2000/svg">
<path d="M336.332 246.656L172.672 325.636C168.757 327.545 165.455 330.512 163.137 334.201C160.82 337.891 159.58 342.156 159.559 346.514V573.132C159.559 579.326 162.017 585.266 166.393 589.646C170.769 594.025 176.704 596.486 182.892 596.486H510.539C516.727 596.486 522.662 594.025 527.038 589.646C531.413 585.266 533.872 579.326 533.872 573.132V346.514C533.85 342.156 532.611 337.891 530.293 334.201C527.976 330.512 524.673 327.545 520.758 325.636L356.445 246.656C353.305 245.154 349.869 244.375 346.389 244.375C342.908 244.375 339.472 245.154 336.332 246.656Z" stroke="#8E82D3" stroke-width="4.97" stroke-miterlimit="10"/>
<path d="M346.223 430.445H366.663V389.857C366.663 387.21 366.141 384.588 365.127 382.143C364.114 379.697 362.628 377.476 360.755 375.606C358.883 373.736 356.66 372.254 354.214 371.246C351.769 370.237 349.148 369.721 346.503 369.727H226.989C224.344 369.721 221.724 370.237 219.278 371.246C216.832 372.254 214.61 373.736 212.737 375.606C210.864 377.476 209.379 379.697 208.365 382.143C207.351 384.588 206.829 387.21 206.829 389.857V451.322C206.799 453.992 207.297 456.641 208.297 459.116C209.296 461.591 210.776 463.843 212.651 465.741C214.526 467.639 216.759 469.147 219.22 470.175C221.682 471.204 224.322 471.733 226.989 471.733H243.929L266.283 491.35L273.049 471.733H326.109V450.575C326.109 447.932 326.63 445.314 327.641 442.872C328.651 440.429 330.133 438.21 332.001 436.341C333.868 434.472 336.086 432.989 338.526 431.977C340.966 430.965 343.582 430.445 346.223 430.445Z" fill="#B0A8E1"/>
<path d="M465.775 430.445H366.655V451.322C366.686 453.992 366.187 456.641 365.188 459.116C364.189 461.591 362.708 463.843 360.833 465.741C358.958 467.639 356.725 469.147 354.264 470.175C351.803 471.204 349.162 471.733 346.495 471.733H326.102V512.274C326.102 514.918 326.622 517.535 327.633 519.978C328.643 522.42 330.125 524.639 331.993 526.508C333.86 528.378 336.078 529.86 338.518 530.872C340.958 531.884 343.574 532.404 346.215 532.404H419.668L426.482 552.068L448.835 532.404H465.775C471.114 532.404 476.234 530.285 480.014 526.511C483.793 522.737 485.923 517.617 485.935 512.274V450.575C485.923 445.232 483.793 440.112 480.014 436.338C476.234 432.564 471.114 430.445 465.775 430.445Z" fill="#A8C7E1"/>
<path d="M366.655 451.322V430.445H346.215C343.574 430.445 340.958 430.965 338.518 431.977C336.078 432.989 333.86 434.472 331.993 436.341C330.125 438.21 328.643 440.429 327.633 442.872C326.622 445.314 326.102 447.932 326.102 450.575V471.733H346.495C349.162 471.733 351.803 471.204 354.264 470.175C356.725 469.147 358.958 467.639 360.833 465.741C362.708 463.843 364.189 461.591 365.188 459.116C366.187 456.641 366.686 453.992 366.655 451.322Z" fill="#3E7CB1"/>
<path d="M2405.39 491.63C2410.55 491.63 2414.73 487.448 2414.73 482.289C2414.73 477.13 2410.55 472.948 2405.39 472.948C2400.24 472.948 2396.06 477.13 2396.06 482.289C2396.06 487.448 2400.24 491.63 2405.39 491.63Z" fill="#4E3EB1"/>
<path d="M2367.68 491.63C2372.83 491.63 2377.01 487.448 2377.01 482.289C2377.01 477.13 2372.83 472.948 2367.68 472.948C2362.52 472.948 2358.34 477.13 2358.34 482.289C2358.34 487.448 2362.52 491.63 2367.68 491.63Z" fill="#4E3EB1"/>
<path d="M2329.92 491.63C2335.08 491.63 2339.26 487.448 2339.26 482.289C2339.26 477.13 2335.08 472.948 2329.92 472.948C2324.77 472.948 2320.59 477.13 2320.59 482.289C2320.59 487.448 2324.77 491.63 2329.92 491.63Z" fill="#4E3EB1"/>
<path d="M1037.73 596.345C1017.21 596.768 996.947 591.723 979.02 581.726C962.24 572.23 948.39 558.303 938.98 541.465C929.417 523.2 924.422 502.886 924.422 482.265C924.422 461.644 929.417 441.331 938.98 423.065C948.431 406.307 962.275 392.45 979.02 382.991C997.044 373.422 1017.14 368.418 1037.54 368.418C1057.94 368.418 1078.04 373.422 1096.06 382.991C1112.83 392.501 1126.68 406.425 1136.1 423.252C1146.07 441.437 1151.09 461.924 1150.66 482.662C1151.07 503.242 1146.12 523.573 1136.29 541.652C1127 558.507 1113.22 572.447 1096.48 581.913C1078.52 591.85 1058.24 596.831 1037.73 596.345ZM1037.73 559.354C1051 559.601 1064.08 556.174 1075.53 549.452C1086.42 542.968 1095.3 533.592 1101.19 522.363C1107.58 510.053 1110.78 496.342 1110.53 482.476C1110.76 468.552 1107.55 454.786 1101.19 442.402C1095.34 431.086 1086.45 421.626 1075.53 415.078C1063.98 408.615 1050.98 405.221 1037.75 405.221C1024.52 405.221 1011.52 408.615 999.973 415.078C989.01 421.649 980.052 431.098 974.073 442.402C967.65 454.764 964.44 468.545 964.74 482.476C964.417 496.349 967.629 510.075 974.073 522.363C980.087 533.58 989.041 542.945 999.973 549.452C1011.4 556.18 1024.47 559.607 1037.73 559.354Z" fill="#4E3EB1"/>
<path d="M1518.86 408.306C1512.76 395.651 1503.01 385.123 1490.86 378.087C1478.17 371.07 1463.86 367.526 1449.37 367.812C1432.84 367.502 1416.51 371.459 1401.96 379.301C1392.48 384.519 1384.12 391.531 1377.32 399.946C1371.4 390.896 1363.4 383.4 1353.98 378.087C1341.31 371.07 1327.02 367.525 1312.54 367.812C1297.35 367.516 1282.38 371.497 1269.33 379.301C1264.09 382.499 1259.23 386.292 1254.86 390.604C1254.94 387.918 1254.47 385.244 1253.49 382.74C1252.51 380.237 1251.04 377.956 1249.17 376.032C1247.17 374.092 1244.79 372.582 1242.18 371.594C1239.57 370.606 1236.79 370.161 1234 370.287C1231.25 370.2 1228.51 370.663 1225.94 371.65C1223.36 372.636 1221.01 374.126 1219.02 376.032C1217.07 378.026 1215.55 380.406 1214.57 383.02C1213.59 385.634 1213.17 388.424 1213.33 391.212V574.113C1213.42 578.263 1214.7 582.297 1217.04 585.726C1219.38 589.155 1222.66 591.829 1226.49 593.423C1230.32 595.017 1234.53 595.462 1238.6 594.704C1242.68 593.946 1246.45 592.017 1249.45 589.153C1251.37 587.158 1252.87 584.8 1253.86 582.217C1254.85 579.635 1255.32 576.879 1255.24 574.113V458.235C1254.71 444.266 1259.74 430.658 1269.24 420.403C1273.74 415.575 1279.22 411.758 1285.31 409.206C1291.4 406.654 1297.96 405.424 1304.56 405.597C1310.66 405.346 1316.75 406.33 1322.46 408.489C1328.17 410.648 1333.38 413.937 1337.79 418.161C1346.28 426.506 1350.53 439.319 1350.53 456.6V574.113C1350.61 578.272 1351.89 582.318 1354.23 585.756C1356.57 589.194 1359.86 591.875 1363.7 593.471C1367.54 595.067 1371.76 595.508 1375.84 594.741C1379.93 593.974 1383.7 592.032 1386.7 589.153C1388.61 587.155 1390.1 584.796 1391.08 582.213C1392.07 579.63 1392.53 576.876 1392.44 574.113V458.235C1391.9 444.306 1396.84 430.722 1406.2 420.403C1415.14 411.329 1427.22 406.037 1439.94 405.62C1452.66 405.203 1465.06 409.692 1474.57 418.161C1483.06 426.506 1487.31 439.319 1487.31 456.6V574.113C1487.4 578.263 1488.68 582.297 1491.02 585.726C1493.36 589.155 1496.64 591.829 1500.47 593.423C1504.3 595.017 1508.51 595.462 1512.58 594.704C1516.66 593.946 1520.43 592.017 1523.43 589.153C1525.34 587.155 1526.83 584.796 1527.82 582.213C1528.8 579.63 1529.26 576.876 1529.17 574.113V456.6C1529.56 439.916 1526.03 423.373 1518.86 408.306Z" fill="#4E3EB1"/>
<path d="M1623.35 333.296C1617.01 333.308 1610.87 331.119 1605.96 327.103C1601.05 323.086 1597.69 317.49 1596.44 311.268C1595.19 305.047 1596.14 298.586 1599.12 292.986C1602.11 287.387 1606.94 282.995 1612.79 280.561C1618.64 278.126 1625.16 277.8 1631.23 279.637C1637.3 281.473 1642.54 285.36 1646.07 290.633C1649.59 295.907 1651.18 302.241 1650.56 308.556C1649.94 314.87 1647.16 320.775 1642.67 325.262C1640.18 327.861 1637.18 329.916 1633.85 331.298C1630.53 332.681 1626.95 333.361 1623.35 333.296ZM1623.35 594.851C1620.58 594.935 1617.82 594.451 1615.25 593.43C1612.67 592.408 1610.33 590.871 1608.37 588.912C1606.41 586.952 1604.86 584.612 1603.84 582.036C1602.81 579.459 1602.32 576.699 1602.4 573.926V390.838C1602.28 388.023 1602.75 385.215 1603.78 382.593C1604.81 379.971 1606.37 377.593 1608.37 375.612C1611.3 372.545 1615.09 370.442 1619.23 369.583C1623.38 368.724 1627.69 369.149 1631.59 370.802C1635.5 372.455 1638.8 375.257 1641.07 378.836C1643.34 382.415 1644.47 386.601 1644.31 390.838V573.74C1644.39 576.495 1643.93 579.24 1642.94 581.814C1641.96 584.389 1640.47 586.741 1638.57 588.732C1636.58 590.723 1634.2 592.279 1631.58 593.3C1628.96 594.322 1626.16 594.786 1623.35 594.664V594.851Z" fill="#4E3EB1"/>
<path d="M1918.61 491.723C1920.36 490.061 1921.74 488.051 1922.66 485.823C1923.59 483.595 1924.03 481.198 1923.98 478.786C1924.37 458.99 1920.22 439.369 1911.84 421.431C1904.15 405.3 1891.97 391.74 1876.75 382.384C1860.07 372.648 1840.99 367.793 1821.68 368.372C1801.49 367.97 1781.57 373.02 1764 382.991C1747.48 392.537 1733.91 406.471 1724.8 423.252C1715.13 441.528 1710.31 461.986 1710.8 482.662C1710.4 503.322 1715.6 523.706 1725.83 541.652C1735.67 558.641 1750.01 572.575 1767.27 581.913C1782.56 590.016 1799.35 594.874 1816.6 596.184C1833.85 597.494 1851.18 595.227 1867.51 589.526C1880.02 585.545 1891.75 579.43 1902.18 571.451C1904.29 570.078 1906 568.181 1907.16 565.946C1908.31 563.71 1908.86 561.214 1908.76 558.7C1908.51 556.061 1907.73 553.5 1906.46 551.172C1905.2 548.844 1903.47 546.797 1901.39 545.155C1897.91 542.156 1893.42 540.602 1888.84 540.812C1884.01 540.95 1879.35 542.581 1875.49 545.482C1868.89 550.181 1861.62 553.865 1853.93 556.412C1845.56 559.436 1836.74 561.015 1827.84 561.082C1813.37 561.368 1799.07 557.824 1786.4 550.807C1776.5 545.26 1767.99 537.527 1761.52 528.196C1755.05 518.864 1750.8 508.18 1749.07 496.955H1905.22C1907.68 497.012 1910.14 496.579 1912.44 495.681C1914.74 494.783 1916.83 493.438 1918.61 491.723ZM1781.64 413.817C1793.77 406.713 1807.64 403.153 1821.68 403.542C1833.62 403.054 1845.43 406.14 1855.61 412.405C1865.78 418.669 1873.86 427.829 1878.8 438.712C1882.55 446.696 1885.01 455.225 1886.08 463.98H1749.4C1750.72 456.363 1753.08 448.963 1756.4 441.981C1761.91 430.343 1770.68 420.559 1781.64 413.817Z" fill="#4E3EB1"/>
<path d="M2090.25 596.345C2070.42 596.715 2050.86 591.699 2033.66 581.829C2016.45 571.96 2002.24 557.607 1992.53 540.298C1982.53 522.47 1977.29 502.362 1977.32 481.915V294.623C1977.21 291.813 1977.69 289.011 1978.72 286.396C1979.76 283.782 1981.33 281.414 1983.34 279.444C1986.26 276.38 1990.04 274.279 1994.19 273.419C1998.33 272.558 2002.64 272.98 2006.53 274.627C2010.43 276.273 2013.74 279.068 2016.01 282.64C2018.29 286.211 2019.42 290.391 2019.27 294.623V405.597C2028.78 394.165 2040.6 384.87 2053.94 378.321C2069.47 370.951 2086.57 367.546 2103.73 368.41C2120.89 369.274 2137.56 374.38 2152.27 383.271C2168.16 393.271 2181.13 407.308 2189.84 423.953C2199.21 441.878 2203.95 461.872 2203.6 482.102C2203.91 502.553 2198.74 522.714 2188.62 540.485C2178.8 557.836 2164.47 572.206 2147.15 582.072C2129.83 591.939 2110.17 596.935 2090.25 596.532V596.345ZM2090.25 559.354C2103.39 559.566 2116.33 556.07 2127.58 549.265C2138.58 542.497 2147.59 532.922 2153.67 521.522C2160.19 509.404 2163.52 495.819 2163.33 482.055C2163.58 468.284 2160.26 454.683 2153.67 442.588C2147.49 431.368 2138.5 421.951 2127.58 415.265C2116.25 408.66 2103.37 405.181 2090.25 405.181C2077.13 405.181 2064.25 408.66 2052.92 415.265C2041.93 421.87 2032.92 431.307 2026.83 442.588C2020.42 454.739 2017.21 468.32 2017.5 482.055C2017.27 495.784 2020.48 509.352 2026.83 521.522C2032.85 533.06 2041.94 542.703 2053.1 549.381C2064.27 556.059 2077.06 559.511 2090.06 559.354H2090.25Z" fill="#8E82D2"/>
<path d="M2367.86 596.345C2347.35 596.775 2327.08 591.729 2309.16 581.726C2292.38 572.23 2278.53 558.303 2269.12 541.465C2259.52 523.21 2254.51 502.892 2254.51 482.265C2254.51 461.638 2259.52 441.321 2269.12 423.065C2278.57 406.307 2292.41 392.45 2309.16 382.991C2327.18 373.422 2347.27 368.418 2367.68 368.418C2388.08 368.418 2408.17 373.422 2426.2 382.991C2442.95 392.528 2456.79 406.445 2466.24 423.252C2475.74 441.535 2480.71 461.842 2480.71 482.452C2480.71 503.062 2475.74 523.369 2466.24 541.652C2456.94 558.497 2443.16 572.433 2426.43 581.913C2408.52 591.812 2388.32 596.791 2367.86 596.345ZM2367.86 559.354C2381.14 559.601 2394.22 556.174 2405.66 549.452C2416.55 542.955 2425.43 533.582 2431.33 522.363C2437.71 510.053 2440.92 496.342 2440.66 482.476C2440.9 468.552 2437.69 454.786 2431.33 442.402C2425.46 431.096 2416.58 421.639 2405.66 415.078C2394.11 408.615 2381.1 405.222 2367.86 405.222C2354.63 405.222 2341.62 408.615 2330.06 415.078C2319.13 421.671 2310.19 431.116 2304.21 442.402C2297.79 454.764 2294.58 468.545 2294.88 482.476C2294.56 496.349 2297.77 510.075 2304.21 522.363C2310.23 533.563 2319.16 542.924 2330.06 549.452C2341.51 556.174 2354.59 559.601 2367.86 559.354Z" fill="#8E82D2"/>
<path d="M2651.41 559.354C2649.88 557.531 2647.96 556.07 2645.8 555.077C2643.64 554.084 2641.28 553.582 2638.9 553.609H2624.9C2620.6 553.613 2616.35 552.61 2612.5 550.68C2608.66 548.75 2605.31 545.946 2602.74 542.493C2596.55 534.674 2593.34 524.906 2593.68 514.936V413.444H2628.59C2633.72 413.67 2638.74 411.895 2642.59 408.493C2644.32 406.946 2645.69 405.043 2646.62 402.915C2647.55 400.787 2648 398.483 2647.96 396.162C2648.06 393.71 2647.64 391.263 2646.71 388.99C2645.79 386.717 2644.38 384.67 2642.59 382.991C2638.75 379.572 2633.72 377.794 2628.59 378.04H2593.73V318.91C2593.73 316.212 2593.2 313.539 2592.17 311.046C2591.14 308.553 2589.62 306.287 2587.72 304.379C2585.81 302.47 2583.55 300.957 2581.05 299.924C2578.56 298.891 2575.89 298.36 2573.2 298.36C2570.5 298.36 2567.83 298.891 2565.34 299.924C2562.85 300.957 2560.58 302.47 2558.68 304.379C2556.77 306.287 2555.26 308.553 2554.23 311.046C2553.19 313.539 2552.66 316.212 2552.66 318.91V378.321H2534C2528.9 377.998 2523.88 379.673 2520 382.991C2518.22 384.668 2516.82 386.708 2515.91 388.973C2514.99 391.238 2514.57 393.674 2514.68 396.116C2514.62 398.441 2515.06 400.752 2515.98 402.889C2516.9 405.026 2518.27 406.938 2520 408.493C2523.85 411.895 2528.87 413.67 2534 413.444H2552.66V514.936C2552.41 529.071 2555.61 543.053 2562 555.664C2567.94 567.311 2576.88 577.161 2587.9 584.202C2598.93 591.226 2611.78 594.863 2624.86 594.664H2632.23C2638.55 594.957 2644.77 592.912 2649.68 588.919C2651.85 587.122 2653.59 584.857 2654.76 582.293C2655.93 579.729 2656.51 576.932 2656.45 574.113C2656.71 568.73 2654.91 563.45 2651.41 559.354Z" fill="#8E82D2"/>
<path d="M853.159 415.686C845.099 400.631 832.821 388.261 817.833 380.095C802.211 371.854 784.763 367.693 767.106 367.999C750.073 367.747 733.256 371.846 718.246 379.909C710.583 384.089 703.532 389.307 697.293 395.415V294.623C697.201 290.499 695.92 286.489 693.603 283.076C691.287 279.664 688.034 276.995 684.236 275.391C680.438 273.787 676.258 273.316 672.2 274.035C668.141 274.754 664.376 276.632 661.36 279.443C659.371 281.422 657.817 283.794 656.797 286.408C655.776 289.021 655.312 291.819 655.433 294.623V574.113C655.518 578.263 656.808 582.297 659.144 585.726C661.481 589.155 664.763 591.829 668.592 593.423C672.421 595.017 676.63 595.462 680.707 594.704C684.784 593.946 688.552 592.017 691.553 589.153C693.463 587.155 694.955 584.796 695.941 582.213C696.926 579.63 697.386 576.876 697.293 574.113V458.235C697.147 448.613 700.02 439.188 705.506 431.286C711.225 423.307 718.845 416.885 727.673 412.603C737.385 407.846 748.081 405.446 758.893 405.597C770.451 405.385 781.901 407.846 792.353 412.79C802.155 417.621 810.283 425.284 815.686 434.788C821.873 446.557 824.836 459.755 824.273 473.041V574.113C824.273 579.688 826.485 585.033 830.424 588.975C834.362 592.917 839.703 595.131 845.273 595.131C850.842 595.131 856.184 592.917 860.122 588.975C864.06 585.033 866.273 579.688 866.273 574.113V473.041C866.838 453.118 862.325 433.38 853.159 415.686Z" fill="#4E3EB1"/>
<path d="M1069.23 550.013L1087.62 537.682L1093.54 566.033L1069.23 550.013Z" fill="white"/>
<path d="M2342.11 550.013L2323.73 537.682L2317.8 566.033L2342.11 550.013Z" fill="white"/>
</svg>
