<svg width="2800" height="840" viewBox="0 0 2800 840" fill="none" xmlns="http://www.w3.org/2000/svg">
<path d="M336.332 246.447L172.672 325.36C168.757 327.267 165.455 330.232 163.137 333.918C160.82 337.604 159.58 341.866 159.559 346.22V572.647C159.559 578.835 162.017 584.77 166.393 589.146C170.769 593.522 176.704 595.98 182.892 595.98H510.539C516.727 595.98 522.662 593.522 527.038 589.146C531.414 584.77 533.872 578.835 533.872 572.647V346.22C533.85 341.866 532.611 337.604 530.293 333.918C527.976 330.232 524.673 327.267 520.759 325.36L356.445 246.447C353.305 244.947 349.869 244.168 346.389 244.168C342.908 244.168 339.472 244.947 336.332 246.447Z" stroke="#F8F8F8" stroke-width="4.97" stroke-miterlimit="10"/>
<path d="M346.223 430.08H366.663V389.527C366.663 386.881 366.141 384.262 365.127 381.819C364.114 379.375 362.628 377.156 360.755 375.288C358.883 373.419 356.66 371.939 354.214 370.931C351.769 369.923 349.148 369.407 346.503 369.413H226.989C224.344 369.407 221.724 369.923 219.278 370.931C216.832 371.939 214.61 373.419 212.737 375.288C210.864 377.156 209.379 379.375 208.365 381.819C207.351 384.262 206.829 386.881 206.829 389.527V450.94C206.799 453.607 207.297 456.254 208.297 458.727C209.296 461.199 210.776 463.449 212.651 465.346C214.526 467.243 216.759 468.749 219.22 469.777C221.682 470.804 224.322 471.333 226.989 471.333H243.929L266.283 490.933L273.049 471.333H326.109V450.193C326.109 447.552 326.63 444.936 327.64 442.496C328.651 440.056 330.133 437.839 332.001 435.971C333.868 434.103 336.086 432.622 338.526 431.611C340.966 430.6 343.581 430.08 346.223 430.08Z" fill="#F8F8F8"/>
<path d="M465.775 430.08H366.655V450.94C366.686 453.607 366.187 456.254 365.188 458.727C364.189 461.2 362.708 463.45 360.833 465.346C358.958 467.243 356.725 468.749 354.264 469.777C351.803 470.804 349.162 471.334 346.495 471.333H326.102V511.84C326.102 514.481 326.622 517.097 327.633 519.537C328.643 521.977 330.125 524.195 331.993 526.062C333.86 527.93 336.078 529.412 338.518 530.422C340.958 531.433 343.574 531.953 346.215 531.953H419.668L426.482 551.6L448.835 531.953H465.775C471.114 531.953 476.234 529.836 480.014 526.065C483.793 522.295 485.923 517.179 485.935 511.84V450.193C485.923 444.855 483.793 439.739 480.014 435.968C476.234 432.198 471.114 430.08 465.775 430.08Z" fill="#A8C7E1"/>
<path d="M366.655 450.94V430.08H346.215C343.574 430.08 340.958 430.6 338.518 431.611C336.078 432.622 333.86 434.103 331.993 435.971C330.125 437.839 328.643 440.056 327.633 442.496C326.622 444.937 326.102 447.552 326.102 450.193V471.333H346.495C349.162 471.334 351.803 470.804 354.264 469.777C356.725 468.749 358.958 467.243 360.833 465.346C362.708 463.45 364.189 461.2 365.188 458.727C366.187 456.254 366.686 453.607 366.655 450.94Z" fill="#3E7CB1"/>
<path d="M2405.39 491.213C2410.55 491.213 2414.73 487.035 2414.73 481.88C2414.73 476.725 2410.55 472.547 2405.39 472.547C2400.24 472.547 2396.06 476.725 2396.06 481.88C2396.06 487.035 2400.24 491.213 2405.39 491.213Z" fill="#F8F8F8"/>
<path d="M2367.68 491.213C2372.83 491.213 2377.01 487.035 2377.01 481.88C2377.01 476.725 2372.83 472.547 2367.68 472.547C2362.52 472.547 2358.34 476.725 2358.34 481.88C2358.34 487.035 2362.52 491.213 2367.68 491.213Z" fill="#F8F8F8"/>
<path d="M2329.92 491.213C2335.08 491.213 2339.26 487.035 2339.26 481.88C2339.26 476.725 2335.08 472.547 2329.92 472.547C2324.77 472.547 2320.59 476.725 2320.59 481.88C2320.59 487.035 2324.77 491.213 2329.92 491.213Z" fill="#F8F8F8"/>
<path d="M1518.86 407.96C1512.76 395.316 1503.01 384.796 1490.86 377.767C1478.17 370.756 1463.86 367.215 1449.37 367.5C1432.84 367.191 1416.51 371.144 1401.96 378.98C1392.48 384.193 1384.12 391.199 1377.32 399.607C1371.4 390.564 1363.4 383.075 1353.98 377.767C1341.31 370.756 1327.02 367.214 1312.54 367.5C1297.35 367.205 1282.38 371.182 1269.33 378.98C1264.09 382.175 1259.23 385.965 1254.86 390.273C1254.94 387.589 1254.47 384.917 1253.49 382.416C1252.51 379.915 1251.04 377.636 1249.17 375.713C1247.17 373.775 1244.79 372.266 1242.18 371.279C1239.57 370.292 1236.79 369.848 1234 369.973C1231.25 369.886 1228.51 370.349 1225.94 371.335C1223.36 372.32 1221.01 373.809 1219.02 375.713C1217.07 377.705 1215.55 380.083 1214.57 382.695C1213.59 385.307 1213.17 388.095 1213.33 390.88V573.627C1213.42 577.773 1214.7 581.804 1217.04 585.23C1219.38 588.655 1222.66 591.328 1226.49 592.92C1230.32 594.513 1234.53 594.958 1238.6 594.2C1242.68 593.443 1246.45 591.515 1249.45 588.653C1251.37 586.66 1252.87 584.304 1253.86 581.724C1254.85 579.143 1255.32 576.391 1255.24 573.627V457.847C1254.71 443.889 1259.74 430.293 1269.24 420.047C1273.74 415.222 1279.22 411.409 1285.31 408.859C1291.4 406.309 1297.96 405.08 1304.56 405.253C1310.66 405.003 1316.75 405.986 1322.46 408.143C1328.17 410.3 1333.38 413.587 1337.79 417.807C1346.28 426.144 1350.53 438.947 1350.53 456.213V573.627C1350.61 577.782 1351.89 581.824 1354.23 585.259C1356.57 588.695 1359.86 591.373 1363.7 592.968C1367.54 594.562 1371.76 595.004 1375.84 594.237C1379.93 593.471 1383.7 591.531 1386.7 588.653C1388.61 586.658 1390.1 584.3 1391.08 581.72C1392.07 579.139 1392.53 576.388 1392.44 573.627V457.847C1391.9 443.93 1396.84 430.356 1406.2 420.047C1415.14 410.981 1427.22 405.693 1439.94 405.276C1452.66 404.86 1465.06 409.345 1474.57 417.807C1483.06 426.144 1487.31 438.947 1487.31 456.213V573.627C1487.4 577.773 1488.68 581.804 1491.02 585.23C1493.36 588.655 1496.64 591.328 1500.47 592.92C1504.3 594.513 1508.51 594.958 1512.58 594.2C1516.66 593.443 1520.43 591.515 1523.43 588.653C1525.34 586.658 1526.83 584.3 1527.82 581.72C1528.8 579.139 1529.26 576.388 1529.17 573.627V456.213C1529.56 439.543 1526.03 423.014 1518.86 407.96Z" fill="#F8F8F8"/>
<path d="M1623.35 333.013C1617.01 333.026 1610.87 330.839 1605.96 326.825C1601.05 322.812 1597.69 317.221 1596.44 311.005C1595.19 304.789 1596.14 298.333 1599.12 292.738C1602.11 287.143 1606.94 282.755 1612.79 280.323C1618.64 277.891 1625.16 277.564 1631.23 279.4C1637.3 281.235 1642.54 285.118 1646.07 290.387C1649.59 295.656 1651.18 301.985 1650.56 308.294C1649.94 314.604 1647.16 320.503 1642.67 324.987C1640.18 327.583 1637.18 329.636 1633.85 331.018C1630.53 332.399 1626.95 333.078 1623.35 333.013ZM1623.35 594.347C1620.58 594.43 1617.82 593.947 1615.25 592.927C1612.67 591.906 1610.33 590.37 1608.37 588.413C1606.41 586.455 1604.86 584.117 1603.84 581.542C1602.81 578.968 1602.32 576.21 1602.4 573.44V390.507C1602.28 387.695 1602.75 384.889 1603.78 382.269C1604.81 379.649 1606.37 377.273 1608.37 375.293C1611.3 372.229 1615.09 370.128 1619.23 369.27C1623.38 368.411 1627.69 368.836 1631.59 370.487C1635.5 372.139 1638.8 374.939 1641.07 378.515C1643.34 382.091 1644.47 386.274 1644.31 390.507V573.253C1644.39 576.006 1643.93 578.749 1642.94 581.321C1641.96 583.893 1640.47 586.243 1638.57 588.233C1636.58 590.223 1634.2 591.777 1631.58 592.798C1628.96 593.818 1626.16 594.282 1623.35 594.16V594.347Z" fill="#F8F8F8"/>
<path d="M1918.61 491.307C1920.36 489.646 1921.74 487.638 1922.66 485.411C1923.59 483.185 1924.03 480.79 1923.98 478.38C1924.37 458.601 1920.22 438.996 1911.84 421.073C1904.15 404.957 1891.97 391.408 1876.75 382.06C1860.07 372.332 1840.99 367.481 1821.68 368.06C1801.49 367.658 1781.57 372.703 1764 382.667C1747.48 392.204 1733.91 406.126 1724.8 422.893C1715.13 441.154 1710.31 461.594 1710.8 482.253C1710.4 502.896 1715.6 523.262 1725.83 541.193C1735.67 558.168 1750.01 572.09 1767.27 581.42C1782.56 589.515 1799.35 594.37 1816.6 595.678C1833.85 596.987 1851.18 594.723 1867.51 589.027C1880.02 585.049 1891.75 578.939 1902.18 570.967C1904.29 569.595 1906 567.699 1907.16 565.466C1908.31 563.233 1908.86 560.738 1908.76 558.227C1908.51 555.59 1907.73 553.031 1906.46 550.705C1905.2 548.379 1903.47 546.334 1901.39 544.693C1897.91 541.696 1893.42 540.143 1888.84 540.353C1884.01 540.491 1879.35 542.121 1875.49 545.02C1868.89 549.714 1861.62 553.395 1853.93 555.94C1845.56 558.962 1836.74 560.54 1827.84 560.607C1813.37 560.893 1799.07 557.351 1786.4 550.34C1776.5 544.798 1767.99 537.071 1761.52 527.748C1755.05 518.425 1750.8 507.749 1749.07 496.533H1905.22C1907.68 496.591 1910.14 496.158 1912.44 495.261C1914.74 494.364 1916.83 493.02 1918.61 491.307ZM1781.64 413.467C1793.77 406.368 1807.64 402.811 1821.68 403.2C1833.62 402.712 1845.43 405.795 1855.61 412.055C1865.78 418.314 1873.86 427.466 1878.8 438.34C1882.55 446.318 1885.01 454.839 1886.08 463.587H1749.4C1750.72 455.977 1753.08 448.582 1756.4 441.607C1761.91 429.979 1770.68 420.202 1781.64 413.467Z" fill="#F8F8F8"/>
<path d="M2090.25 595.84C2070.42 596.209 2050.86 591.197 2033.66 581.336C2016.45 571.475 2002.24 557.135 1992.53 539.84C1982.53 522.028 1977.29 501.936 1977.32 481.507V294.373C1977.21 291.565 1977.69 288.765 1978.72 286.154C1979.76 283.542 1981.33 281.175 1983.34 279.207C1986.26 276.146 1990.04 274.046 1994.19 273.187C1998.33 272.327 2002.64 272.748 2006.53 274.394C2010.43 276.039 2013.74 278.832 2016.01 282.4C2018.29 285.969 2019.42 290.144 2019.27 294.373V405.253C2028.78 393.831 2040.6 384.544 2053.94 378C2069.47 370.637 2086.57 367.235 2103.73 368.098C2120.89 368.961 2137.56 374.063 2152.27 382.947C2168.16 392.937 2181.13 406.962 2189.84 423.593C2199.21 441.504 2203.95 461.48 2203.6 481.693C2203.91 502.127 2198.74 522.271 2188.62 540.027C2178.8 557.363 2164.47 571.721 2147.15 581.579C2129.83 591.437 2110.17 596.429 2090.25 596.027V595.84ZM2090.25 558.88C2103.39 559.092 2116.33 555.599 2127.58 548.8C2138.58 542.037 2147.59 532.47 2153.67 521.08C2160.19 508.972 2163.52 495.399 2163.33 481.647C2163.58 467.887 2160.26 454.297 2153.67 442.213C2147.49 431.002 2138.5 421.593 2127.58 414.913C2116.25 408.314 2103.37 404.837 2090.25 404.837C2077.13 404.837 2064.25 408.314 2052.92 414.913C2041.93 421.513 2032.92 430.941 2026.83 442.213C2020.42 454.353 2017.21 467.923 2017.5 481.647C2017.27 495.364 2020.48 508.921 2026.83 521.08C2032.85 532.608 2041.94 542.243 2053.1 548.915C2064.27 555.588 2077.06 559.037 2090.06 558.88H2090.25Z" fill="#F8F8F8"/>
<path d="M2651.41 558.88C2649.88 557.059 2647.96 555.599 2645.8 554.606C2643.64 553.614 2641.28 553.113 2638.9 553.14H2624.9C2620.6 553.144 2616.35 552.141 2612.5 550.213C2608.66 548.285 2605.31 545.484 2602.74 542.033C2596.55 534.221 2593.34 524.461 2593.68 514.5V413.093H2628.59C2633.72 413.319 2638.74 411.546 2642.59 408.147C2644.32 406.601 2645.69 404.7 2646.62 402.573C2647.55 400.447 2648 398.146 2647.96 395.827C2648.06 393.376 2647.64 390.932 2646.71 388.66C2645.79 386.389 2644.38 384.344 2642.59 382.667C2638.75 379.25 2633.72 377.474 2628.59 377.72H2593.73V318.64C2593.73 315.944 2593.2 313.273 2592.17 310.782C2591.14 308.291 2589.62 306.027 2587.72 304.121C2585.81 302.214 2583.55 300.702 2581.05 299.67C2578.56 298.638 2575.89 298.107 2573.2 298.107C2570.5 298.107 2567.83 298.638 2565.34 299.67C2562.85 300.702 2560.58 302.214 2558.68 304.121C2556.77 306.027 2555.26 308.291 2554.23 310.782C2553.19 313.273 2552.66 315.944 2552.66 318.64V378H2534C2528.9 377.677 2523.88 379.351 2520 382.667C2518.22 384.342 2516.82 386.38 2515.91 388.643C2514.99 390.906 2514.57 393.34 2514.68 395.78C2514.62 398.104 2515.06 400.413 2515.98 402.548C2516.9 404.683 2518.27 406.593 2520 408.147C2523.85 411.546 2528.87 413.319 2534 413.093H2552.66V514.5C2552.41 528.623 2555.61 542.593 2562 555.193C2567.94 566.83 2576.88 576.672 2587.9 583.707C2598.93 590.725 2611.78 594.359 2624.86 594.16H2632.23C2638.55 594.453 2644.77 592.41 2649.68 588.42C2651.85 586.625 2653.59 584.361 2654.76 581.799C2655.93 579.237 2656.51 576.443 2656.45 573.627C2656.71 568.248 2654.91 562.972 2651.41 558.88Z" fill="#F8F8F8"/>
<path d="M853.16 415.333C845.099 400.292 832.821 387.932 817.833 379.773C802.211 371.539 784.763 367.382 767.106 367.687C750.073 367.435 733.256 371.531 718.246 379.587C710.583 383.763 703.532 388.977 697.293 395.08V294.373C697.201 290.252 695.92 286.246 693.603 282.837C691.287 279.427 688.034 276.76 684.236 275.157C680.438 273.555 676.258 273.084 672.2 273.802C668.141 274.521 664.376 276.398 661.36 279.207C659.371 281.184 657.817 283.554 656.797 286.165C655.776 288.777 655.312 291.572 655.433 294.373V573.627C655.518 577.773 656.808 581.804 659.144 585.23C661.481 588.655 664.763 591.328 668.592 592.92C672.421 594.513 676.63 594.958 680.707 594.2C684.784 593.443 688.552 591.515 691.553 588.653C693.463 586.658 694.955 584.3 695.941 581.72C696.926 579.139 697.386 576.388 697.293 573.627V457.847C697.147 448.233 700.02 438.816 705.506 430.92C711.225 422.949 718.845 416.532 727.673 412.253C737.385 407.5 748.081 405.102 758.893 405.253C770.451 405.041 781.901 407.501 792.353 412.44C802.155 417.267 810.283 424.924 815.686 434.42C821.873 446.178 824.836 459.365 824.273 472.64V573.627C824.273 579.196 826.485 584.538 830.424 588.476C834.362 592.414 839.703 594.627 845.273 594.627C850.842 594.627 856.184 592.414 860.122 588.476C864.06 584.538 866.273 579.196 866.273 573.627V472.64C866.838 452.734 862.325 433.012 853.16 415.333Z" fill="#F8F8F8"/>
<path d="M1136.1 422.707C1126.65 405.963 1112.8 392.118 1096.06 382.667C1078.04 373.106 1057.94 368.106 1037.54 368.106C1017.14 368.106 997.044 373.106 979.019 382.667C962.251 392.169 948.404 406.081 938.98 422.893C929.417 441.143 924.422 461.44 924.422 482.043C924.422 502.647 929.417 522.943 938.98 541.193C948.39 558.016 962.24 571.931 979.019 581.42C997.11 591.01 1017.27 596.024 1037.75 596.024C1058.22 596.024 1078.39 591.01 1096.48 581.42C1113.22 571.961 1127 558.034 1136.29 541.193C1146.12 523.129 1151.07 502.815 1150.66 482.253C1151.12 461.47 1146.1 440.932 1136.1 422.707ZM1101.33 521.92C1097.87 528.338 1093.43 534.179 1088.17 539.233L1093.68 565.553L1071.79 551.133C1061.27 556.399 1049.63 559.056 1037.87 558.88C1024.61 559.133 1011.54 555.708 1000.11 548.987C989.181 542.485 980.227 533.128 974.213 521.92C967.769 509.643 964.557 495.928 964.88 482.067C964.58 468.148 967.79 454.378 974.213 442.027C980.192 430.733 989.149 421.292 1000.11 414.727C1011.66 408.269 1024.66 404.878 1037.89 404.878C1051.12 404.878 1064.12 408.269 1075.67 414.727C1086.59 421.268 1095.48 430.721 1101.33 442.027C1107.69 454.401 1110.9 468.155 1110.67 482.067C1110.92 495.921 1107.72 509.621 1101.33 521.92Z" fill="#F8F8F8"/>
<path d="M2466.24 422.707C2456.76 405.983 2442.92 392.144 2426.2 382.667C2408.17 373.106 2388.08 368.106 2367.68 368.106C2347.27 368.106 2327.18 373.106 2309.16 382.667C2292.39 392.169 2278.54 406.081 2269.12 422.893C2259.52 441.134 2254.51 461.434 2254.51 482.043C2254.51 502.653 2259.52 522.953 2269.12 541.193C2278.53 558.016 2292.38 571.931 2309.16 581.42C2327.25 591.01 2347.41 596.024 2367.89 596.024C2388.36 596.024 2408.53 591.01 2426.62 581.42C2443.35 571.948 2457.13 558.023 2466.42 541.193C2475.93 522.926 2480.89 502.636 2480.89 482.043C2480.89 461.451 2475.93 441.161 2466.42 422.893L2466.24 422.707ZM2431.33 521.92C2425.43 533.13 2416.54 542.495 2405.66 548.987C2394.22 555.703 2381.14 559.127 2367.86 558.88C2357.36 559.001 2346.94 556.902 2337.3 552.72L2317.79 565.553L2322.46 543.667C2315.02 537.699 2308.85 530.305 2304.3 521.92C2297.86 509.643 2294.65 495.928 2294.97 482.067C2294.67 468.148 2297.88 454.378 2304.3 442.027C2310.29 430.75 2319.22 421.314 2330.16 414.727C2341.71 408.269 2354.72 404.878 2367.96 404.878C2381.19 404.878 2394.21 408.269 2405.76 414.727C2416.67 421.282 2425.55 430.731 2431.42 442.027C2437.79 454.401 2440.99 468.155 2440.76 482.067C2440.99 495.929 2437.75 509.629 2431.33 521.92Z" fill="#F8F8F8"/>
</svg>
