<svg width="2790" height="2399" viewBox="0 0 2790 2399" fill="none" xmlns="http://www.w3.org/2000/svg">
<path d="M1925 2182.26C2081.92 2167.52 2211.54 2119.88 2260.72 2100.45C2378.96 2053.69 2512.52 2000.89 2620.93 1877.13C2799.9 1672.8 2790.18 1412.24 2788.46 1379.44C2773.18 1088.49 2571.58 889.877 2367.44 688.786C2295.61 618.026 2183.95 508.084 2017.2 411.774C1684.66 219.732 1034.24 24.9904 545.309 365.495C272.814 555.28 164.892 831.493 109.649 972.911C43.4394 1142.58 -35.5879 1344.62 47.2592 1552.77C112.332 1716.26 245.277 1803.33 321.605 1851.89C585.307 2019.67 713.465 1911.71 1181.21 2018.92C1547.42 2102.79 1642.54 2208.83 1925 2182.26Z" fill="#E8E6F6"/>
<path d="M1242.36 0C1242.36 0 1151.62 428.36 1125.02 485.385C1098.41 542.411 977.505 622.542 977.505 622.542C977.505 622.542 958.491 626.616 961.207 641.556C962.31 647.616 967.217 650.995 973.736 652.404C981.385 651.132 988.86 648.973 996.01 645.97C1012.56 638.619 1049.23 619.384 1061.17 613.408C1073.1 607.432 1093.32 598.961 1097.21 599.283C1098.52 599.402 1099.47 599.521 1100.16 599.657C1101.2 599.563 1102.25 599.733 1103.2 600.15C1104.16 600.568 1104.99 601.22 1105.63 602.046C1106.27 602.872 1106.68 603.846 1106.84 604.876C1107 605.907 1106.9 606.961 1106.55 607.941C1096.02 636.802 1071.95 698.785 1049.96 727.662C1034.07 748.653 1020.08 771.015 1008.15 794.483C1004.4 801.902 1001.93 812.037 1007.86 818.251C1007.89 818.312 1007.92 818.374 1007.94 818.438C1009.39 821.103 1014.38 821.29 1019.15 820.814C1025.38 818.095 1031.14 814.417 1036.23 809.915C1047.76 798.897 1068.96 775.147 1075.27 764.349C1081.59 753.552 1129.6 650.01 1133.37 646.275C1137.14 642.54 1144.3 642.116 1144.3 642.116C1146.56 641.42 1152.11 647.209 1152.3 651.249C1153.47 676.121 1114.17 757.015 1104.47 773.619C1093.35 792.701 1067.96 828.233 1066.9 836.705C1065.85 845.176 1064.82 849.794 1070.61 854.14C1071.96 855.159 1074.6 855.447 1077.82 855.294C1085.14 851.709 1092.06 847.374 1098.48 842.358C1110.23 832.359 1136.76 791.037 1141.11 782.345C1145.46 773.653 1170.84 697.121 1173.04 689.94C1175.25 682.759 1180.11 671.401 1184.84 666.698L1188.05 664.203C1189.15 662.189 1190.82 660.548 1192.86 659.487C1194.89 658.426 1197.2 657.993 1199.48 658.244C1200.24 658.323 1200.97 658.568 1201.63 658.962C1202.28 659.356 1202.85 659.889 1203.27 660.524C1203.7 661.159 1203.98 661.879 1204.1 662.635C1204.22 663.391 1204.17 664.164 1203.96 664.899C1198.27 687.071 1178.85 762.55 1173.77 779.034C1167.82 798.422 1152.91 823.004 1152.91 841.645C1152.91 852.714 1159.23 856.024 1166.75 855.685C1167.81 855.64 1168.87 855.498 1169.9 855.26C1173.81 850.32 1178.82 843.886 1183.18 837.978C1191.89 826.094 1211.89 781.581 1214.45 770.291C1217.01 759.002 1234.45 692.35 1239.59 682.012C1244.74 671.673 1263.04 656.275 1263.04 656.275C1263.42 655.84 1263.92 655.532 1264.48 655.392C1270.27 653.864 1272.14 659.347 1272.49 663.88C1272.56 664.742 1272.48 665.609 1272.26 666.444L1248.32 758.272C1247.41 761.714 1247.72 765.368 1249.22 768.601C1250.71 771.834 1253.29 774.444 1256.5 775.979C1261.18 778.233 1266.49 778.792 1271.53 777.557C1275.55 772.021 1279.04 766.121 1281.97 759.935C1288.33 745.811 1305.55 684.609 1307.43 669.958C1308.84 659.093 1317.28 613.136 1323.88 582.578C1324.22 575.159 1324.46 568.844 1324.66 564.005C1329.38 450.125 1363.46 253.566 1497.68 0H1242.36Z" fill="#6D3621"/>
<path d="M1188.99 489.291C1190.9 480.548 1214.77 472.738 1237.01 477.594C1259.25 482.449 1271.46 498.119 1269.56 506.862C1267.66 515.605 1252.07 496.133 1229.83 491.294C1207.59 486.456 1187.08 498.017 1188.99 489.291Z" fill="#522919"/>
<path d="M0 704.982C0 704.982 379.348 923.678 425.355 966.578C471.363 1009.48 510.24 1149.25 510.24 1149.25C510.24 1149.25 508.236 1168.6 523.295 1170.62C529.39 1171.46 534.109 1167.84 537.487 1162.13C538.63 1154.47 538.881 1146.69 538.234 1138.96C536.367 1120.95 529.406 1080.14 527.403 1066.95C525.4 1053.75 523.6 1031.89 525.111 1028.29C525.621 1027.08 526.045 1026.22 526.368 1025.59C526.6 1024.57 527.086 1023.63 527.78 1022.85C528.474 1022.07 529.354 1021.48 530.338 1021.13C531.322 1020.78 532.378 1020.69 533.408 1020.85C534.439 1021.02 535.41 1021.45 536.231 1022.09C560.372 1041 611.931 1083.06 632.592 1112.9C647.652 1134.46 664.587 1154.65 683.2 1173.24C689.108 1179.09 697.987 1184.56 705.643 1180.83H705.864C708.835 1180.3 710.567 1175.6 711.568 1170.91C710.909 1164.15 709.19 1157.53 706.475 1151.3C699.667 1136.91 683.539 1109.42 675.221 1100.07C666.902 1090.71 583.274 1013.01 580.88 1008.39C578.487 1003.77 580.303 996.712 580.303 996.712C580.303 994.352 587.637 990.889 591.457 991.942C615.479 998.495 680.28 1060.88 693.063 1075.23C707.765 1091.7 733.723 1126.84 741.448 1130.47C749.172 1134.11 753.331 1136.48 759.171 1132.32C760.563 1131.36 761.65 1128.93 762.567 1125.82C761.402 1117.76 759.417 1109.83 756.642 1102.17C750.768 1087.91 719.666 1049.9 712.74 1043.08C705.813 1036.25 640.877 988.478 634.731 984.166C628.585 979.854 619.265 971.722 616.277 965.746L614.885 961.927C613.305 960.263 612.258 958.166 611.877 955.904C611.496 953.642 611.798 951.317 612.746 949.228C613.054 948.527 613.513 947.903 614.089 947.4C614.666 946.897 615.346 946.527 616.082 946.316C616.818 946.105 617.591 946.059 618.346 946.181C619.102 946.303 619.821 946.59 620.453 947.021C639.79 959.278 705.575 1001.08 719.683 1011.01C736.27 1022.65 755.063 1044.43 772.77 1050.19C783.295 1053.58 788.406 1048.61 790.409 1041.38C790.69 1040.35 790.883 1039.3 790.986 1038.24C787.489 1032.99 782.905 1026.24 778.644 1020.28C770.155 1008.39 733.876 975.525 723.944 969.6C714.013 963.675 656.037 926.496 647.82 918.449C639.603 910.402 630.606 888.196 630.606 888.196C630.292 887.688 630.15 887.093 630.198 886.498C630.538 880.506 636.327 880.438 640.809 881.507C641.646 881.716 642.443 882.06 643.168 882.526L723.13 933.677C726.115 935.593 729.674 936.41 733.195 935.989C736.717 935.567 739.983 933.934 742.432 931.368C746.035 927.631 748.205 922.744 748.561 917.566C744.524 912.026 739.977 906.877 734.979 902.185C723.435 891.727 670.62 856.449 657.225 850.1C647.311 845.38 606.295 823.158 579.132 807.437C572.188 804.823 566.246 802.65 561.713 800.969C454.98 761.328 278.641 668.176 78.8915 462.179L0 704.982Z" fill="#F5AC85"/>
<path d="M448.832 906.938C441.108 902.439 441.074 877.313 452.567 857.705C464.061 838.097 482.735 831.289 490.443 835.805C498.15 840.321 474.858 849.115 463.364 868.774C451.871 888.433 456.557 911.454 448.832 906.938Z" fill="#B88164"/>
<path d="M777.503 1596.59C783.513 1592.07 849.01 1545.08 857.651 1540.57C866.292 1536.05 911.977 1518.26 927.409 1517.05C935.555 1516.79 943.707 1517.36 951.737 1518.75C948.523 1516.74 945.17 1514.96 941.703 1513.42C932.31 1509.11 921.816 1507.81 911.654 1509.68C896.664 1512.42 881.419 1516.29 865.002 1525.08C806.347 1556.49 781.238 1583.25 752.683 1607.01C751.933 1607.62 751.112 1608.14 750.238 1608.56L754.296 1608.42C760.9 1607.44 771.493 1601.05 777.503 1596.59Z" fill="#6D3621"/>
<path d="M719.051 1563.82C729.237 1558.54 782.51 1514.86 791.219 1507.24C799.928 1499.62 842.337 1475.27 856.308 1470.86C863.32 1468.65 871.146 1466.39 877.224 1464.68C870.807 1461.91 863.473 1463.12 856.359 1464.92C838.788 1469.33 806.074 1485.82 796.091 1493.78C771.679 1513.27 728.065 1545.57 707.184 1560.7C700.388 1565.3 692.879 1568.74 684.961 1570.89C684.961 1570.89 708.881 1569.1 719.051 1563.82Z" fill="#6D3621"/>
<path d="M900.328 1593.86C911.804 1588.76 942.905 1582.08 958.728 1579.95C965.485 1579.31 972.301 1579.72 978.93 1581.18C976.044 1579.48 973.056 1578.14 971.376 1577.37C938.033 1562.3 851.247 1606.64 851.247 1606.64C824.963 1620.09 799.55 1635.18 775.157 1651.82C774.795 1652.07 774.379 1652.23 773.943 1652.29C773.507 1652.35 773.062 1652.31 772.645 1652.17C772.645 1652.17 778.722 1656.06 783.934 1655.23C789.146 1654.4 888.868 1598.88 900.328 1593.86Z" fill="#6D3621"/>
<path d="M730.578 1475.87C736.586 1472.59 742.883 1469.87 749.389 1467.75C745.465 1466.14 741.156 1465.73 736.996 1466.55C690.377 1475.88 624.184 1554.83 592.387 1594.71C615.679 1573.87 649.514 1541.65 657.069 1533.69C667.221 1522.96 717.116 1483.56 730.578 1475.87Z" fill="#6D3621"/>
<path d="M823.107 1724.2C836.264 1726.39 877.229 1732.37 894.953 1736.09C902.498 1737.87 909.812 1740.51 916.752 1743.97C915.729 1742.84 914.64 1741.77 913.492 1740.77C906.118 1734.76 897.483 1730.49 888.23 1728.28C875.345 1725.21 815.077 1717.04 785.809 1713.15C784.976 1713.04 784.173 1712.76 783.449 1712.34C783.942 1712.85 784.638 1713.51 785.622 1714.38C788.593 1717.01 810.018 1722.01 823.107 1724.2Z" fill="#6D3621"/>
<path d="M315.986 2113.96C315.986 2113.96 641.178 1820.75 696.268 1790.26C751.358 1759.77 896.221 1765.98 896.221 1765.98C896.221 1765.98 913.996 1773.86 920.583 1760.18C923.248 1754.63 921.262 1749.02 916.831 1744.03C909.891 1740.58 902.577 1737.94 895.033 1736.16C877.309 1732.37 836.344 1726.39 823.187 1724.27C810.03 1722.15 788.673 1717.07 785.702 1714.51C784.717 1713.64 784.004 1712.98 783.529 1712.47C782.633 1711.94 781.887 1711.19 781.359 1710.29C780.831 1709.39 780.54 1708.37 780.511 1707.32C780.482 1706.28 780.717 1705.25 781.194 1704.32C781.671 1703.39 782.375 1702.6 783.24 1702.02C808.706 1684.89 864.627 1648.86 899.396 1638.44C924.588 1630.79 949.051 1620.92 972.498 1608.95C979.9 1605.15 987.777 1598.39 986.657 1589.95C986.651 1589.88 986.651 1589.82 986.657 1589.75C987.064 1586.74 983.126 1583.65 978.983 1581.26C972.354 1579.8 965.538 1579.39 958.781 1580.04C942.958 1582.16 911.857 1588.93 900.38 1593.94C888.904 1598.95 789.182 1654.48 783.987 1655.31C778.792 1656.14 772.698 1652.26 772.698 1652.26C770.457 1651.49 769.421 1643.48 771.594 1640.17C785.26 1619.35 864.61 1577.01 882.215 1569.27C902.418 1560.38 943.858 1546.56 949.698 1540.33C955.538 1534.1 959.07 1530.96 956.93 1524.05C956.438 1522.35 954.486 1520.65 951.837 1518.85C943.807 1517.46 935.656 1516.89 927.51 1517.15C912.129 1518.36 866.393 1536.19 857.752 1540.67C849.11 1545.15 783.614 1592.14 777.604 1596.69C771.594 1601.24 761 1607.54 754.396 1608.57L750.339 1608.71C748.266 1609.71 745.942 1610.06 743.667 1609.72C741.392 1609.39 739.27 1608.38 737.572 1606.83C737.003 1606.31 736.552 1605.68 736.254 1604.98C735.955 1604.27 735.815 1603.51 735.845 1602.75C735.874 1601.98 736.071 1601.23 736.422 1600.55C736.774 1599.87 737.271 1599.28 737.878 1598.81C755.5 1584.21 815.581 1534.57 829.383 1524.22C845.596 1512.04 872.114 1500.91 883.064 1485.83C889.566 1476.89 886.459 1470.55 880.127 1466.34C879.238 1465.75 878.301 1465.24 877.326 1464.81C871.248 1466.51 863.422 1468.79 856.411 1470.99C842.439 1475.41 800.03 1499.75 791.321 1507.38C782.612 1515 729.237 1558.61 719.051 1563.82C708.865 1569.04 684.961 1570.85 684.961 1570.85C684.396 1570.98 683.805 1570.94 683.263 1570.73C677.678 1568.56 679.393 1563.03 681.803 1559.09C682.266 1558.36 682.839 1557.71 683.501 1557.15L756.858 1496.92C759.601 1494.67 761.477 1491.54 762.164 1488.06C762.852 1484.58 762.308 1480.97 760.627 1477.85C758.178 1473.27 754.201 1469.7 749.388 1467.75C742.882 1469.87 736.585 1472.59 730.578 1475.87C717.115 1483.56 667.22 1522.96 657.068 1533.69C649.513 1541.65 615.679 1573.87 592.386 1594.7C587.752 1600.51 583.898 1605.48 580.842 1609.29C510.116 1698.65 367.018 1837.63 109.395 1963.88L315.986 2113.96Z" fill="#8E4F33"/>
<path d="M646.718 1749.48C640.046 1755.44 616.16 1747.78 600.999 1730.71C585.839 1713.63 585.194 1693.87 591.866 1687.91C598.538 1681.95 599.709 1706.85 614.869 1723.86C630.03 1740.87 653.407 1743.54 646.718 1749.48Z" fill="#6D3621"/>
<path d="M783.228 1712.86C775.029 1713.03 766.829 1713.42 758.646 1713.98C754.549 1714.24 750.474 1714.57 746.423 1714.97C742.382 1715.32 738.367 1715.93 734.403 1716.78C730.535 1717.93 726.756 1719.35 723.096 1721.05L711.909 1726C708.174 1727.7 704.456 1729.4 700.738 1731.1C698.887 1731.94 697.054 1732.79 695.237 1733.76C693.398 1734.62 691.652 1735.67 690.025 1736.89L689.805 1736.68C692.741 1733.72 696.093 1731.21 699.753 1729.21C703.284 1727.07 706.934 1725.14 710.618 1723.3C712.486 1722.4 714.353 1721.61 716.238 1720.69C718.122 1719.77 720.04 1718.99 721.959 1718.31C725.817 1716.73 729.789 1715.44 733.843 1714.46C737.935 1713.73 742.068 1713.26 746.219 1713.05C750.327 1712.78 754.436 1712.63 758.544 1712.51C766.778 1712.37 774.995 1712.39 783.194 1712.61L783.228 1712.86Z" fill="#E8E6F6"/>
<path d="M1539.63 1646.09C1545.78 1634.21 1564.13 1597.13 1573.19 1581.46C1577.21 1574.83 1581.99 1568.69 1587.44 1563.16C1586.04 1563.77 1584.69 1564.47 1583.4 1565.27C1575.4 1570.43 1568.67 1577.31 1563.69 1585.42C1556.79 1596.74 1530.41 1651.53 1517.68 1678.16C1517.31 1678.92 1516.8 1679.6 1516.17 1680.15C1516.8 1679.84 1517.64 1679.38 1518.77 1678.71C1522.13 1676.69 1533.48 1657.94 1539.63 1646.09Z" fill="#F5AC85"/>
<path d="M1753.59 2248.86C1753.59 2248.86 1575.23 1848.92 1563.23 1787.2C1551.22 1725.49 1601.93 1589.54 1601.93 1589.54C1601.93 1589.54 1614.92 1575.06 1603.95 1564.57C1599.49 1560.31 1593.55 1560.48 1587.44 1563.16C1581.99 1568.69 1577.21 1574.83 1573.19 1581.46C1564.13 1597.13 1545.77 1634.24 1539.63 1646.09C1533.48 1657.94 1522.13 1676.65 1518.76 1678.71C1517.64 1679.38 1516.79 1679.84 1516.17 1680.15C1515.38 1680.84 1514.44 1681.31 1513.42 1681.54C1512.4 1681.76 1511.34 1681.72 1510.34 1681.43C1509.34 1681.13 1508.43 1680.59 1507.69 1679.85C1506.96 1679.11 1506.42 1678.2 1506.13 1677.19C1497.64 1647.71 1480.67 1583.36 1481.55 1547.08C1482.05 1520.76 1480.23 1494.45 1476.1 1468.45C1474.76 1460.23 1470.79 1450.59 1462.4 1449.11L1462.23 1449.01C1459.5 1447.7 1455.34 1450.49 1451.76 1453.68C1448.33 1459.54 1445.83 1465.9 1444.35 1472.52C1441.49 1488.23 1438.31 1519.89 1439.53 1532.35C1440.75 1544.81 1462.76 1656.82 1461.93 1662.03C1461.09 1667.25 1455.52 1671.81 1455.52 1671.81C1454.12 1673.71 1446.17 1672.22 1443.64 1669.13C1428.07 1649.71 1412.32 1561.14 1410.4 1542.01C1408.19 1520.06 1407.85 1476.38 1403.73 1468.89C1399.6 1461.4 1397.7 1457.01 1390.49 1457.01C1388.79 1457.01 1386.48 1458.3 1383.95 1460.4C1380.15 1467.6 1377.11 1475.17 1374.85 1483C1371.22 1498 1374.04 1547.02 1375.63 1556.61C1377.23 1566.2 1401.69 1643.02 1404.12 1650.13C1406.55 1657.25 1409.31 1669.28 1408.23 1675.87L1407.11 1679.78C1407.4 1682.05 1407.01 1684.36 1405.99 1686.42C1404.97 1688.48 1403.36 1690.18 1401.37 1691.32C1400.71 1691.7 1399.97 1691.94 1399.21 1692C1398.44 1692.07 1397.68 1691.97 1396.96 1691.71C1396.24 1691.44 1395.59 1691.03 1395.05 1690.49C1394.51 1689.94 1394.09 1689.29 1393.83 1688.57C1385.34 1667.3 1356.75 1594.81 1351.15 1578.49C1344.6 1559.31 1342.19 1530.65 1331.24 1515.58C1324.74 1506.61 1317.66 1507.66 1311.8 1512.33C1310.97 1513 1310.2 1513.74 1309.49 1514.54C1309.24 1520.84 1308.96 1528.99 1308.91 1536.34C1308.78 1550.99 1318.83 1598.85 1323.38 1609.47C1327.93 1620.1 1353.07 1684.24 1354.97 1695.48C1356.87 1706.72 1351.12 1730.08 1351.12 1730.08C1351.07 1730.65 1350.84 1731.2 1350.47 1731.64C1346.69 1736.29 1341.98 1732.95 1338.96 1729.45C1338.4 1728.79 1337.95 1728.03 1337.64 1727.23L1303.02 1638.95C1301.73 1635.64 1299.34 1632.88 1296.24 1631.15C1293.14 1629.42 1289.54 1628.82 1286.04 1629.46C1280.94 1630.38 1276.32 1633.06 1272.97 1637.03C1272.98 1643.86 1273.62 1650.68 1274.89 1657.4C1278.03 1672.59 1300.08 1732.22 1307.15 1745.19C1312.39 1754.83 1332.61 1796.97 1345.21 1825.56C1349.28 1831.75 1352.81 1837.02 1355.5 1841.04C1418.63 1935.92 1506.59 2114.96 1547.05 2399L1753.59 2248.86Z" fill="#FFC3A3"/>
<path d="M1509.17 1821.65C1512.77 1829.83 1498.05 1850.19 1477.19 1859.34C1456.32 1868.49 1437.26 1862.97 1433.66 1854.79C1430.06 1846.61 1454.03 1853.09 1474.96 1844.03C1495.9 1834.96 1505.59 1813.47 1509.17 1821.65Z" fill="#F5AC85"/>
<path d="M2326.15 923.27C2326.15 923.27 1890.73 969.345 1828.27 961.654C1765.81 953.964 1652.24 863.749 1652.24 863.749C1652.24 863.749 1642.47 846.925 1629.11 854.123C1623.68 857.043 1622 862.764 1622.66 869.402C1626.23 876.282 1630.6 882.721 1635.67 888.586C1647.77 902.066 1677.4 931.028 1686.77 940.484C1696.14 949.94 1710.54 966.595 1711.33 970.415C1711.64 971.688 1711.81 972.638 1711.91 973.335C1712.32 974.294 1712.48 975.342 1712.38 976.381C1712.27 977.419 1711.91 978.415 1711.32 979.275C1710.73 980.135 1709.93 980.832 1709 981.302C1708.06 981.771 1707.03 981.997 1705.99 981.959C1675.43 980.855 1608.91 977.137 1574.65 965.135C1549.8 956.518 1524.24 950.121 1498.26 946.019C1490.04 944.745 1479.58 945.543 1475.64 953.064C1475.6 953.118 1475.55 953.164 1475.49 953.2C1473.4 955.407 1474.76 960.211 1476.7 964.591C1481.21 969.672 1486.48 974.02 1492.33 977.477C1506.37 985.049 1535.52 997.849 1547.74 1000.53C1559.97 1003.21 1673.37 1016.91 1677.99 1019.31C1682.61 1021.7 1685.32 1028.42 1685.32 1028.42C1686.68 1030.36 1682.81 1037.44 1679.11 1038.85C1655.84 1047.64 1566.72 1035.27 1547.95 1031.19C1526.39 1026.51 1484.73 1013.33 1476.34 1014.94C1467.95 1016.56 1463.25 1017.02 1460.91 1023.86C1460.36 1025.45 1460.91 1028.05 1462.04 1031.07C1467.71 1036.92 1473.97 1042.17 1480.72 1046.73C1493.88 1054.81 1541.36 1067.27 1550.99 1068.8C1560.61 1070.32 1641.22 1070.71 1648.72 1070.59C1656.23 1070.48 1668.53 1071.58 1674.48 1074.65L1677.87 1076.93C1680.13 1077.35 1682.21 1078.43 1683.85 1080.04C1685.49 1081.65 1686.61 1083.71 1687.07 1085.96C1687.24 1086.71 1687.23 1087.48 1687.06 1088.23C1686.89 1088.97 1686.56 1089.67 1686.08 1090.27C1685.61 1090.87 1685.01 1091.36 1684.33 1091.71C1683.65 1092.05 1682.9 1092.24 1682.13 1092.26C1659.28 1093.7 1581.49 1098.56 1564.25 1098.83C1543.98 1099.15 1515.98 1092.56 1498.26 1098.34C1487.73 1101.73 1486.54 1108.79 1489.17 1115.82C1489.55 1116.82 1490.01 1117.77 1490.55 1118.69C1496.47 1120.88 1504.13 1123.66 1511.11 1125.99C1525.01 1130.63 1573.62 1135.87 1585.14 1134.82C1596.67 1133.77 1665.44 1129.73 1676.82 1131.42C1688.19 1133.12 1708.53 1145.79 1708.53 1145.79C1709.06 1146.01 1709.51 1146.39 1709.82 1146.87C1713.08 1151.96 1708.43 1155.36 1704.17 1157.06C1703.37 1157.39 1702.52 1157.59 1701.66 1157.64L1606.93 1163.24C1603.38 1163.44 1600.01 1164.87 1597.41 1167.28C1594.8 1169.7 1593.12 1172.94 1592.65 1176.46C1591.95 1181.6 1593.06 1186.83 1595.81 1191.23C1602.32 1193.35 1609.01 1194.85 1615.8 1195.71C1631.2 1197.41 1694.73 1194.87 1709.18 1192.15C1719.96 1190.15 1766.27 1183.97 1797.46 1180.81C1804.6 1178.84 1810.7 1177.11 1815.37 1175.72C1925.11 1144.99 2122.65 1116.67 2405.19 1165.95L2326.15 923.27Z" fill="#8E4F33"/>
<path d="M1844.33 1023.7C1853.23 1022.82 1868.1 1043.11 1870.27 1065.77C1872.44 1088.44 1861.41 1104.82 1852.5 1105.77C1843.58 1106.72 1857.3 1085.82 1855.04 1063.16C1852.78 1040.49 1835.42 1024.59 1844.33 1023.7Z" fill="#6D3621"/>
<path d="M1389.54 1177.48C1389.46 1248.47 1362.2 1316.73 1313.35 1368.25C1264.5 1419.76 1197.78 1450.61 1126.9 1454.45C1056.01 1458.29 986.349 1434.84 932.218 1388.92C878.087 1342.99 843.602 1278.07 835.849 1207.51C828.096 1136.94 847.664 1066.09 890.531 1009.51C933.399 952.922 996.311 914.905 1066.34 903.267C1136.37 891.629 1208.19 907.253 1267.06 946.931C1325.93 986.608 1367.36 1047.32 1382.85 1116.6C1387.31 1136.59 1389.55 1157 1389.54 1177.48Z" fill="#7A9BD2"/>
<path d="M1043.97 1045.33C1043.53 1047.03 1041.8 1050.14 1030.03 1053.31C1012.71 1058 998.811 1053.72 998.149 1056.3C997.724 1058 1002.9 1061.39 1005.21 1062.72C1007.93 1064.26 1008.86 1064.13 1009.08 1064.92C1009.81 1067.61 999.626 1071.17 987.334 1079.86C981.771 1083.72 976.546 1088.04 971.716 1092.78C965.791 1098.62 964.433 1101.27 958.796 1105.01C953.16 1108.74 951.259 1108.27 949.289 1111.12C944.519 1118.03 950.817 1127.57 947.931 1129.47C945.045 1131.37 939.443 1122.49 927.559 1117.93C923.773 1116.47 911.499 1111.78 901.737 1117.93C894.777 1122.31 889.259 1132.12 892.23 1139.66C894.59 1145.68 901.533 1148.15 902.416 1148.5C909.02 1150.78 911.906 1147.3 916.694 1149.86C920.344 1151.81 919.614 1154.38 924.843 1162.76C930.632 1172.05 934.401 1173.53 933.671 1177.02C932.822 1181.2 926.455 1184.39 920.768 1184.51C911.753 1184.68 908.494 1177.02 897.663 1169.55C879.582 1157.11 870.398 1165.92 860.314 1155.29C848.566 1142.95 853.625 1123.38 845.357 1121.34C842.386 1120.59 839.823 1122.68 837.734 1124.34C848.279 1070.01 874.804 1020.07 913.91 980.906C918.259 982.942 922.812 984.512 927.491 985.592C941.801 989.25 956.711 989.921 971.291 987.561C987.436 984.692 995.178 978.699 1002.17 983.589C1004.77 985.405 1007.86 989.14 1007.15 992.552C1005.86 998.766 993.158 997.493 977.267 1007.49C970.476 1011.8 964.789 1015.45 964.314 1021.43C963.805 1028.03 969.746 1035.4 976.198 1036.39C981.427 1037.17 985.739 1033.65 992.139 1028.41C1001.7 1020.6 1002 1015.86 1009.12 1013.47C1013.31 1011.99 1017.88 1011.99 1022.07 1013.47C1027.16 1015.42 1027.5 1018.56 1037.03 1032.4C1042.8 1040.82 1044.68 1042.6 1043.97 1045.33Z" fill="#F7B32B"/>
<path d="M960.224 1178.96C956.806 1179.92 953.649 1181.64 950.989 1183.99C948.329 1186.34 946.234 1189.27 944.86 1192.54C944.537 1193.32 944.215 1194.03 943.943 1194.61C939.286 1205.45 937.178 1217.21 937.78 1228.99C938.425 1236.31 944.571 1245 957.151 1262.42C968.746 1278.61 969.527 1276.71 972.107 1282.65C978.168 1296.73 971.887 1303.03 972.973 1329.29C973.562 1342.16 975.933 1354.89 980.019 1367.11C982.905 1375.72 988.337 1391.92 994.975 1391.75C998.863 1391.66 1001.65 1385.97 1006.42 1375.91C1014.13 1359.64 1011.66 1357.03 1016.96 1347.76C1024.21 1335.13 1029.42 1338.95 1039.85 1323.13C1043.61 1317.42 1044.94 1313.86 1052.15 1302.89C1056.02 1297.03 1058.94 1293.11 1060.08 1291.46C1068.57 1279.58 1087.82 1252.52 1080.32 1236.03C1077.4 1229.65 1068.11 1225.61 1049.52 1217.55C1034.48 1211.03 1029.52 1211.37 1019.61 1204.36C1010.85 1198.18 1010.34 1194.83 1002.02 1188.52C994.832 1183.13 986.719 1179.1 978.083 1176.63C974.955 1175.73 971.637 1175.73 968.508 1176.63L960.224 1178.96Z" fill="#F7B32B"/>
<path d="M1359.87 1118.77C1357.56 1123.34 1367.07 1128.5 1366.75 1136.33C1366.05 1153.31 1319.72 1163.17 1320.91 1169.15C1321.81 1173.44 1345.9 1168.48 1349.14 1175.94C1352.39 1183.39 1329.99 1192.32 1317.09 1217.9C1307.26 1237.43 1315.75 1241.3 1305.67 1265.96C1298.88 1282.64 1289.91 1292.84 1272.09 1313.26C1252.05 1336.21 1247.05 1335.33 1245.38 1334.64C1241.66 1332.94 1243.14 1327.2 1240.05 1314.03C1235.09 1292.97 1227.98 1293.65 1226.32 1278.17C1224.89 1265.01 1229.71 1260.85 1225.55 1248.41C1223.14 1241.09 1221.21 1241.62 1219.44 1234.68C1216.35 1222.42 1221.39 1217.09 1217.91 1207.97C1217.69 1207.36 1214.3 1198.79 1206.47 1195C1192.55 1188.21 1181.67 1204.98 1161.47 1201.79C1150.79 1200.09 1139.16 1193.3 1134.76 1182.73C1131.55 1175.04 1133.06 1167.55 1134.76 1159.06C1136.59 1150.64 1139.95 1142.62 1144.68 1135.41C1146.1 1133.2 1148.66 1129.5 1156.88 1120.91C1163.3 1114.22 1168.26 1109.03 1172.55 1105.04C1173.86 1103.79 1174.85 1102.25 1175.44 1100.54C1176.03 1098.83 1176.2 1097 1175.95 1095.21C1175.69 1093.42 1175.01 1091.72 1173.96 1090.25C1172.91 1088.77 1171.53 1087.57 1169.92 1086.74C1159.5 1080.27 1152.28 1069.08 1154.64 1065.37C1157.88 1060.27 1178.76 1069.32 1180.58 1065.37C1181.84 1062.65 1172.09 1058.13 1172.96 1053.18C1174.06 1047.17 1189.24 1048.81 1206.52 1037.9C1212.87 1033.89 1219.36 1029.82 1219.49 1024.16C1219.73 1014.74 1202.07 1011.07 1202.72 1003.55C1203.21 997.713 1214.37 994.419 1232.46 989.071C1250.56 983.724 1260.02 981.041 1267.57 984.488C1277.76 989.156 1277.49 998.426 1285.87 999.767C1295.62 1001.31 1300.01 989.411 1310.28 987.561C1311.7 987.306 1313.14 987.255 1314.56 987.408C1348.46 1023.6 1372.03 1068.21 1382.84 1116.6C1374.95 1119.27 1362.47 1113.65 1359.87 1118.77Z" fill="#F7B32B"/>
<path d="M1028.3 950.229C1027.79 950.45 1020.56 953.709 1020.27 959.023C1020.05 962.962 1023.77 966.085 1025.26 967.291C1038.05 977.647 1070.95 970.958 1070.95 970.958C1070.95 970.958 1080.47 977.749 1080.71 984.353C1080.93 990.719 1072.42 992.077 1071.56 999.632C1070.95 1005.06 1074.53 1011.8 1079.49 1013.65C1086.4 1016.22 1090.89 1007.42 1108.74 997.815C1126.97 987.986 1134.92 990.345 1142.25 980.142C1145.56 975.525 1145.65 972.537 1150.74 967.342C1158.43 959.43 1165.63 958.531 1165.37 955.764C1165.03 952.266 1153 949.261 1140.99 949.669C1122.85 950.297 1120.72 958.157 1106.26 957.597C1092.39 957.054 1091.42 949.703 1075.8 949.669C1064.7 949.669 1064.82 953.353 1053.85 952.725C1041.29 951.944 1036.28 946.766 1028.3 950.229Z" fill="#F7B32B"/>
<path d="M1332.46 1274.42C1332.46 1274.42 1330.58 1281.5 1326.33 1282.91C1322.09 1284.32 1315.98 1291.4 1315.98 1291.4V1298.46C1315.98 1298.46 1309.85 1302.23 1312.68 1308.83C1313.48 1310.71 1314.8 1312.33 1316.48 1313.5C1318.17 1314.66 1320.14 1315.33 1322.19 1315.42C1322.19 1315.42 1327.28 1306.47 1329.63 1301.29C1331.97 1296.12 1338.11 1279.22 1338.11 1279.22L1332.46 1274.42Z" fill="#F7B32B"/>
<path opacity="0.08" d="M1389.53 1177.48C1389.56 1226.39 1376.69 1274.45 1352.24 1316.81C1327.78 1359.17 1292.6 1394.35 1250.23 1418.79C1207.86 1443.23 1159.79 1456.07 1110.88 1456.03C1061.97 1455.99 1013.93 1443.06 971.598 1418.55C985.582 1420.14 999.644 1420.93 1013.72 1420.93C1191.33 1420.93 1335.31 1296.25 1335.31 1142.51C1335.32 1121.95 1332.73 1101.47 1327.6 1081.56C1314.92 1032.33 1287.16 987.968 1248.73 952.368C1231.74 936.689 1213.09 922.917 1193.11 911.301C1250.02 928.812 1299.82 964.119 1335.17 1012.03C1370.53 1059.94 1389.58 1117.94 1389.53 1177.48Z" fill="black"/>
<path d="M1190.91 1599.2C1190.91 1639.95 1155.17 1686.07 1111.12 1686.07C1067.06 1686.07 1031.32 1639.93 1031.32 1599.2C1031.32 1558.48 1067.08 1525.44 1111.12 1525.44C1155.15 1525.44 1190.91 1558.46 1190.91 1599.2Z" fill="#CC8B19"/>
<path d="M1221.94 1592.99C1222.06 1604.11 1218.22 1614.9 1211.09 1623.43C1207.91 1627.3 1203.92 1630.44 1199.4 1632.61C1194.88 1634.79 1189.94 1635.95 1184.93 1636.03H1037.23C1028.53 1635.94 1020.19 1632.52 1013.96 1626.45C1009.52 1622.1 1006.01 1616.89 1003.65 1611.13C1001.29 1605.38 1000.12 1599.21 1000.22 1592.99C1000.22 1590.3 1000.43 1587.6 1000.87 1584.94C1002.14 1576.69 1005.67 1568.95 1011.05 1562.57C1014.23 1558.69 1018.22 1555.55 1022.74 1553.37C1027.26 1551.19 1032.2 1550.03 1037.21 1549.95H1184.91C1202.96 1549.95 1217.98 1564.98 1221.26 1584.84C1221.27 1584.88 1221.27 1584.91 1221.26 1584.94C1221.7 1587.6 1221.93 1590.29 1221.94 1592.99Z" fill="#CC8B19"/>
<path d="M1221.28 1584.84C1221.08 1595.73 1216.84 1606.15 1209.4 1614.09C1205.73 1618.05 1201.28 1621.21 1196.34 1623.38C1191.39 1625.55 1186.06 1626.68 1180.66 1626.71H1018.36C1016.89 1626.71 1015.43 1626.62 1013.98 1626.45C1009.54 1622.1 1006.03 1616.89 1003.67 1611.13C1001.31 1605.38 1000.14 1599.21 1000.24 1592.99C1000.24 1590.3 1000.46 1587.6 1000.89 1584.94C1002.17 1576.69 1005.69 1568.95 1011.08 1562.57C1014.26 1558.69 1018.24 1555.55 1022.76 1553.37C1027.28 1551.19 1032.22 1550.03 1037.24 1549.95H1184.94C1202.98 1549.95 1218.01 1564.98 1221.28 1584.84Z" fill="#F7B32B"/>
<path d="M1240 1530.13C1240 1535.78 1238.89 1541.37 1236.73 1546.6C1234.57 1551.82 1231.4 1556.56 1227.4 1560.56C1223.4 1564.55 1218.66 1567.72 1213.44 1569.88C1208.21 1572.04 1202.62 1573.15 1196.96 1573.14H1025.19C1019.54 1573.15 1013.95 1572.04 1008.72 1569.88C1003.5 1567.71 998.759 1564.55 994.762 1560.55C990.766 1556.56 987.595 1551.81 985.432 1546.59C983.269 1541.37 982.156 1535.78 982.156 1530.13C982.154 1524.47 983.266 1518.87 985.427 1513.65C987.589 1508.43 990.759 1503.68 994.755 1499.68C998.752 1495.69 1003.5 1492.51 1008.72 1490.35C1013.94 1488.19 1019.54 1487.07 1025.19 1487.07H1196.96C1206.97 1487.07 1216.66 1490.55 1224.37 1496.92C1232.08 1503.29 1237.34 1512.14 1239.24 1521.96C1239.25 1522 1239.25 1522.04 1239.24 1522.08C1239.74 1524.73 1240 1527.43 1240 1530.13Z" fill="#CC8B19"/>
<path d="M1239.25 1521.96C1239.04 1527.52 1237.71 1532.98 1235.33 1538.01C1232.95 1543.04 1229.58 1547.54 1225.41 1551.23C1216.21 1559.43 1204.29 1563.93 1191.97 1563.82H1003.23C1001.53 1563.83 999.833 1563.74 998.14 1563.57C991.215 1557.97 986.199 1550.36 983.782 1541.78C981.366 1533.21 981.669 1524.1 984.649 1515.71C987.629 1507.31 993.14 1500.05 1000.42 1494.92C1007.7 1489.8 1016.4 1487.05 1025.3 1487.07H1196.97C1206.97 1487.07 1216.66 1490.55 1224.38 1496.92C1232.09 1503.29 1237.35 1512.14 1239.25 1521.96Z" fill="#F7B32B"/>
<path d="M1252.35 1467.24C1252.3 1473 1251.05 1478.69 1248.67 1483.93C1246.29 1489.17 1242.84 1493.86 1238.53 1497.68C1229.37 1505.88 1217.48 1510.38 1205.19 1510.28H1016.98C1006.32 1510.34 995.915 1506.98 987.305 1500.69C981.964 1496.88 977.598 1491.87 974.562 1486.06C971.526 1480.25 969.907 1473.8 969.836 1467.24C969.83 1464.54 970.103 1461.84 970.651 1459.2C972.511 1450.55 977.057 1442.72 983.638 1436.82C992.792 1428.61 1004.68 1424.11 1016.98 1424.21H1205.19C1228.17 1424.21 1247.32 1439.21 1251.5 1459.09C1251.51 1459.13 1251.51 1459.16 1251.5 1459.2C1252.06 1461.84 1252.34 1464.54 1252.35 1467.24Z" fill="#CC8B19"/>
<path d="M1251.5 1459.09C1251.14 1470.5 1245.42 1480.82 1236.34 1488.34C1225.95 1496.65 1213 1501.08 1199.7 1500.89H992.908C991.037 1500.9 989.167 1500.81 987.305 1500.64C981.964 1496.83 977.598 1491.82 974.562 1486.01C971.526 1480.2 969.907 1473.75 969.836 1467.19C969.83 1464.49 970.103 1461.79 970.651 1459.14C972.511 1450.5 977.057 1442.67 983.638 1436.77C992.792 1428.56 1004.68 1424.06 1016.98 1424.15H1205.19C1228.17 1424.21 1247.32 1439.21 1251.5 1459.09Z" fill="#F7B32B"/>
</svg>
