<svg width="2101" height="1942" viewBox="0 0 2101 1942" fill="none" xmlns="http://www.w3.org/2000/svg">
<path d="M1587.85 1941.47C1870.71 1941.47 2100.02 1727.98 2100.02 1464.62C2100.02 1201.26 1870.71 987.77 1587.85 987.77C1304.99 987.77 1075.68 1201.26 1075.68 1464.62C1075.68 1727.98 1304.99 1941.47 1587.85 1941.47Z" fill="#C6D4EC"/>
<path d="M1539.44 379.567C1465.18 393.499 1417.31 443.078 1394.92 466.286C1373.1 488.89 1349.47 513.378 1337.12 552.988C1327.79 582.878 1330.51 603.367 1330.44 632.954C1330.44 678.589 1322.23 715.249 1305.99 788.587C1274.98 928.582 1229.99 953.496 1241.52 988.699C1256.91 1035.74 1363.6 1072.22 1758.61 1029.34C1770.13 1003.89 1783.9 971.16 1797.7 932.367C1831.89 835.874 1842.52 767.867 1858.12 667.909C1866.6 613.585 1868 591.692 1860.63 564.627C1849.2 522.671 1824.02 495.323 1796.41 465.113C1767.18 433.251 1741.77 405.547 1698.18 389.536C1664.08 377.097 1631.54 376.297 1603.73 375.693C1585.41 375.391 1564.07 374.946 1539.44 379.567Z" fill="#F7B32B"/>
<path d="M1789.87 567.791C1779.21 585.152 1758.88 611.523 1745.44 645.554C1736.26 668.904 1731.44 686.532 1722.82 718.412C1708.38 771.723 1705.05 796.246 1688.39 841.401C1675.49 876.177 1669.53 882.912 1662.8 887.604C1640.75 903.099 1616.15 892.935 1598.83 913.193C1591.72 921.51 1587.24 933.345 1589.94 935.815C1592.08 937.752 1597.6 932.918 1607.71 928.92C1624.58 922.238 1632.59 926.521 1646.1 923.02C1660.01 919.466 1668.33 910.474 1679.54 898.426C1693.1 883.872 1702.42 867.95 1714.97 837.42C1721.07 822.564 1730.48 798.023 1743.51 751.82C1758.56 698.349 1753.3 705.084 1763.18 676.048C1772.47 648.734 1780.74 632.173 1783.84 603.189C1785.44 588.511 1790.47 576.196 1789.87 567.791Z" fill="#CC8B19"/>
<path d="M1402.63 635.157C1395.26 634.18 1367.74 723.032 1384.87 815.171C1385.66 819.418 1392.43 855.137 1397.3 854.71C1399.99 854.479 1402.55 843.408 1403.54 741.3C1404.36 670.716 1404.71 635.424 1402.63 635.157Z" fill="#CC8B19"/>
<path d="M1481.73 158.379H1481.71C1466.88 158.379 1454.86 170.4 1454.86 185.23V213.805C1454.86 228.634 1466.88 240.656 1481.71 240.656H1481.73C1496.56 240.656 1508.58 228.634 1508.58 213.805V185.23C1508.58 170.4 1496.56 158.379 1481.73 158.379Z" fill="#C6D4EC"/>
<path d="M653.242 960.973H0V1033.72H653.242V960.973Z" fill="#F7B32B"/>
<path d="M574.471 1471.91L543.285 1763.41L632.861 1765.69L671.332 1473.17L574.471 1471.91Z" fill="#F5AC85"/>
<path d="M544.793 1724.6L654.236 1731.57C650.984 1749.62 654.449 1761.51 657.79 1768.76C670.797 1796.13 710.05 1813.19 716.144 1815.76C726.255 1820.15 738.25 1824.03 743.741 1835.56C746.744 1841.87 745.997 1855.41 745.518 1859.78L524.82 1845.72L544.793 1724.6Z" fill="#2A1E5C"/>
<path d="M336.785 813.514L506.235 796.987C506.235 796.987 624.847 892.681 710.887 991.537C746.925 1033.03 774.548 1081.13 792.218 1133.17C803.953 1167.78 805.281 1205.07 796.038 1240.43C766.594 1353.11 741.059 1640.37 736.635 1661.85C729.047 1698.57 473.646 1669.37 473.646 1669.37C473.646 1669.37 645.335 1241.02 620.44 1196.96C595.545 1152.91 476.347 1044.4 424.726 994.381C338.384 910.718 336.785 813.514 336.785 813.514Z" fill="#2A1E5C"/>
<path d="M434.325 1452.77L285.398 1705.27L366.019 1744.4L521.999 1493.96L434.325 1452.77Z" fill="#F5AC85"/>
<path d="M289.607 1680.37L386.379 1731.9C375.949 1747.01 374.189 1759.27 374.314 1767.28C374.829 1797.49 403.545 1829.29 408.076 1834.21C415.468 1842.38 424.779 1850.88 425.01 1863.65C425.135 1870.62 418.862 1882.65 416.623 1886.44L221.496 1782.37L289.607 1680.37Z" fill="#2A1E5C"/>
<path d="M208.329 853.586H378.579C378.579 853.586 487.328 960.333 563.381 1067.1C595.211 1111.9 618.03 1162.45 630.568 1215.96C638.889 1251.55 636.603 1288.81 623.993 1323.12C583.745 1432.4 496.213 1715.13 489.709 1736.08C478.603 1771.87 255.152 1640 255.152 1640C255.152 1640 474.019 1309.06 453.53 1262.8C433.042 1216.55 324.95 1096.95 278.43 1042.22C200.493 950.435 208.329 853.586 208.329 853.586Z" fill="#372E72"/>
<path d="M487.22 300.43C478.506 297.793 469.248 297.518 460.393 299.635C451.538 301.752 443.405 306.185 436.826 312.479C431.67 317.298 427.944 323.447 426.058 330.249C418.222 360.761 457.332 391.272 472.632 403.214C499.819 424.414 523.168 430.509 565.797 443.197C702.747 483.945 735.905 502.515 775.104 481.777C789.888 473.94 801.918 464.842 805.685 456.383C836.906 386.492 584.58 153.914 584.58 153.914L536.247 191.231C536.247 191.231 650.131 314.735 672.503 359.232L487.22 300.43Z" fill="#E03616"/>
<path d="M460.084 269.563C431.28 266.222 408.926 273.117 390.09 279.017C347.117 293.263 308.653 318.576 278.569 352.409C233.292 403.552 222.595 458.125 213.142 506.495C209.09 527.145 207.313 547.883 203.759 589.341C200.952 622.127 199.015 655.998 197.753 706.11C196.58 753.415 188.424 865.279 190.468 942.918C213.195 939.151 266.059 924.561 307.64 928.488C353.432 932.824 360.095 941.887 419.854 953.776C455.286 960.884 511.42 971.546 579.353 965.522C612.707 962.554 682.807 931.758 700.932 926.8C646.593 740.3 588.273 595.507 597.105 503.865C600.499 468.52 611.836 377.358 552.468 317.579C543.281 308.303 510.674 275.41 460.084 269.563Z" fill="#EC583C"/>
<path d="M616.687 400.371C615.901 393.195 615.901 385.956 616.687 378.78C617.539 371.921 618.641 369.22 620.24 368.278C621.467 367.603 622.213 368.367 623.794 367.976C627.757 366.981 628.183 362.023 630.671 359.624C637.246 353.315 657.858 365.239 659.102 366.003C667.827 371.139 675.859 375.866 678.738 384.164C683.269 397.226 673.798 415.565 654.678 427.88L616.687 400.371Z" fill="#F5AC85"/>
<path d="M394.444 374.053C390.946 364.254 384.904 355.563 376.938 348.871C368.972 342.179 359.369 337.726 349.114 335.971C341.178 334.539 333.002 335.295 325.463 338.157C252.608 367.211 267.677 419.03 267.126 441.225C266.131 480.586 276.419 506.193 293.78 553.978C349.487 707.46 377.954 739.874 423.657 761.784C437.51 768.259 452.503 771.936 467.779 772.607C550.709 777.209 663.954 424.592 663.954 424.592L609.135 390.224C609.135 390.224 498.627 537.718 464.367 591.882L394.444 374.053Z" fill="#E03616"/>
<path d="M1101.43 1817.01C1108.85 1838.94 1105.53 1851.77 1101.43 1859.26C1089.98 1880.16 1053.77 1893.79 1048.3 1895.8C1039.73 1898.93 1028.39 1902.11 1024.31 1911.79C1024.02 1912.45 1021 1919.9 1024.31 1925.5C1029.85 1934.84 1049.34 1932.6 1059.7 1931.2C1087.55 1927.65 1102 1919.03 1165.89 1888.94C1179.74 1882.44 1196.35 1874.73 1216.36 1860.19C1224.77 1854.09 1231.36 1848.55 1235.91 1844.6L1204.74 1782.71L1101.43 1817.01Z" fill="#2A1E5C"/>
<path d="M1130 1402.34C1125.34 1378.59 1115.23 1310.39 1155.3 1255.57C1183.46 1217.03 1222.82 1203.79 1290.35 1182.11C1332.19 1168.71 1375.21 1159.28 1418.82 1153.96L1463.72 1077.23L1164.34 1092.47C1143.75 1091.76 1105.71 1093.65 1070.04 1116.96C1014.33 1153.37 1001.43 1217.75 993.81 1255.8C986.703 1291.52 986.276 1324.47 996.547 1402.82C1011.31 1515.57 1027.7 1566.3 1042.75 1653.27C1054.13 1719 1061.4 1785.37 1064.52 1852C1064.52 1852 1141.26 1832.73 1172.66 1819.28C1188.92 1812.32 1204.79 1804.55 1220.64 1797.85C1198.18 1716.11 1177.03 1630.81 1157.79 1541.5C1147.62 1494.3 1138.36 1447.91 1130 1402.34Z" fill="#3E7CB1"/>
<path d="M1247.24 1255.69L1376.44 1226.28L1418.75 1153.96C1375.14 1159.28 1332.12 1168.71 1290.28 1182.11C1222.75 1203.79 1183.47 1217.03 1155.23 1255.57C1115.16 1310.39 1125.27 1378.59 1129.93 1402.34C1138.34 1447.9 1147.64 1494.31 1157.82 1541.57C1177.07 1630.79 1198.21 1716.27 1220.68 1797.92C1235 1791.55 1249.97 1786.71 1265.31 1783.49L1296.69 1777.5C1296.69 1777.5 1213 1589.14 1205.54 1535.42C1198.07 1481.7 1177.1 1406.88 1177.1 1359.06C1177.39 1342.65 1180.28 1326.38 1185.67 1310.87C1190.33 1297.16 1198.44 1284.88 1209.22 1275.21C1220.01 1265.55 1233.1 1258.83 1247.24 1255.69Z" fill="#43658B"/>
<path d="M1508.13 1349.82C1508.36 1305.7 1507.24 1264.4 1505.31 1226.28H1376.44V1366.81C1376.44 1377.89 1377.57 1388.95 1379.84 1399.79C1384.28 1421.21 1387.59 1442.85 1389.75 1464.62C1399.29 1561.22 1383.46 1636.35 1368.73 1703.65C1358.92 1748.48 1348.49 1777.47 1321.7 1845.51C1321.7 1845.51 1349.84 1842.72 1370.85 1842.31C1385.29 1842.05 1418.38 1846.49 1448.6 1851.2C1469.73 1760.85 1485.32 1669.3 1495.27 1577.05C1503.39 1501.58 1507.69 1425.74 1508.13 1349.82Z" fill="#3E7CB1"/>
<path d="M1505.31 1226.28C1507.24 1264.4 1508.36 1305.7 1508.13 1349.82C1507.69 1425.72 1503.39 1501.54 1495.27 1577C1485.32 1669.25 1469.73 1760.8 1448.61 1851.14C1480.59 1856.07 1509.5 1861.22 1509.5 1861.22L1523.72 1864.38C1523.72 1864.38 1530.26 1782.25 1534.81 1741.18C1539.35 1700.11 1575.87 1522.16 1580.44 1488.7C1585 1455.24 1607.82 1411.11 1613.9 1353.32C1619.97 1295.54 1619.99 1226.28 1619.99 1226.28H1505.31Z" fill="#43658B"/>
<path d="M1150.11 1384.51H1101.42L1116.21 1938.56H1133.76H1149.49L1164.27 1384.51H1150.11Z" fill="#F7B32B"/>
<path d="M1709.91 1384.51H1661.23L1676.02 1938.56H1693.57H1709.3L1724.09 1384.51H1709.91Z" fill="#F7B32B"/>
<path d="M1831.61 1320.45H1782.94L1797.72 1874.48H1815.26H1830.99L1845.79 1320.45H1831.61Z" fill="#CC8B19"/>
<path d="M1276.1 1320.45H1227.41L1242.21 1874.48H1259.75H1275.48L1290.28 1320.45H1276.1Z" fill="#CC8B19"/>
<path d="M1724.08 1039.94H1101.42V1384.51H1724.08V1039.94Z" fill="#372E72"/>
<path d="M1724.08 1039.94L1844.88 997.988V1313L1724.08 1384.51V1039.94Z" fill="#2A1E5C"/>
<path d="M1844.88 997.988L1724.08 1039.94H1101.42L1213.32 997.988H1844.88Z" fill="#5F588E"/>
<path d="M1149.03 1024.95L1244.7 995.394H1598.49L1522.1 1028.23L1149.03 1024.95Z" fill="#537EC5"/>
<path d="M1434.71 780.283C1432.45 774.909 1429.87 769.67 1427 764.592L1155.86 768.146C1151.13 768.215 1146.47 769.277 1142.18 771.262C1137.88 773.247 1134.06 776.111 1130.94 779.669C1127.83 783.228 1125.5 787.4 1124.1 791.917C1122.7 796.434 1122.26 801.195 1122.82 805.891L1149.03 1024.87L1394.62 1027.04C1414.7 990.862 1438.67 936.663 1444.88 872.867C1449.96 821.511 1440.42 793.771 1434.71 780.283ZM1315.35 926.711C1308.98 926.711 1302.75 924.821 1297.45 921.279C1292.15 917.737 1288.01 912.702 1285.57 906.812C1283.13 900.922 1282.5 894.44 1283.74 888.187C1284.98 881.934 1288.05 876.19 1292.56 871.682C1297.07 867.174 1302.81 864.104 1309.07 862.86C1315.32 861.616 1321.8 862.254 1327.69 864.694C1333.58 867.134 1338.61 871.266 1342.16 876.567C1345.7 881.868 1347.59 888.1 1347.59 894.476C1347.59 903.025 1344.19 911.224 1338.15 917.27C1332.1 923.315 1323.9 926.711 1315.35 926.711Z" fill="#7A9BD2"/>
<path d="M1495.04 793.86C1494.05 785.591 1490.03 777.981 1483.77 772.493C1477.5 767.006 1469.43 764.027 1461.1 764.131L1427 764.593C1429.87 769.67 1432.45 774.909 1434.71 780.284C1440.42 793.771 1449.89 821.511 1444.88 872.938C1438.68 936.734 1414.67 990.934 1394.62 1027.11L1522.1 1028.23L1495.04 793.86Z" fill="#537EC5"/>
<path d="M1315.35 926.765C1333.16 926.765 1347.59 912.333 1347.59 894.529C1347.59 876.726 1333.16 862.294 1315.35 862.294C1297.55 862.294 1283.12 876.726 1283.12 894.529C1283.12 912.333 1297.55 926.765 1315.35 926.765Z" fill="#537EC5"/>
<path d="M1456.75 954.824C1457.18 956.924 1458.25 958.837 1459.82 960.298C1460.96 961.328 1462.56 962.714 1464.87 964.562C1465.66 965.682 1466.13 966.997 1466.23 968.365C1466.23 970.053 1464.92 970.142 1464.94 971.386C1464.94 973.839 1470.27 973.981 1471.83 977.855C1472.27 979.323 1472.42 980.861 1472.28 982.386C1472.28 985.318 1471.69 986.047 1472.06 986.917C1473.38 990.081 1483.92 988.428 1483.92 988.428C1501.81 985.585 1502.7 991.609 1535 987.344C1564.18 983.488 1578.77 981.569 1584.76 973.679C1596.63 958.201 1591.26 929.057 1576 917.506C1573.4 915.552 1566.4 913.419 1552.43 909.172C1536 904.161 1529.97 903.841 1526.54 907.022C1524.52 908.799 1524.11 910.754 1524.52 911.642C1524.93 912.531 1537.99 918.04 1544.94 921.931C1551.88 925.823 1536.46 930.443 1529.64 932.487C1516.31 936.485 1507.82 933.162 1495.52 932.487C1490.83 932.238 1460.53 930.905 1459.36 936.592C1458.91 938.706 1464.01 940.946 1462.09 943.416C1459.32 946.97 1455.88 950.879 1455.88 950.879L1456.75 954.824Z" fill="#6D3621"/>
<path d="M1318.57 1912.68C1313.68 1901.45 1324.66 1886.93 1336.51 1871.24C1343.23 1862.36 1369.17 1829.14 1414.79 1821.48C1426.34 1819.55 1442.42 1816.83 1460.99 1824.1C1488.26 1834.76 1499.39 1858.73 1501.04 1862.39C1503.53 1867.97 1514.76 1893.19 1502.82 1913.75C1500.94 1916.97 1498.6 1919.91 1495.87 1922.46C1478.38 1938.59 1448.32 1931.34 1414.13 1926.81C1347.73 1917.92 1324.64 1926.69 1318.57 1912.68Z" fill="#2A1E5C"/>
<path d="M1635.52 259.119L1634.85 259.261L1540.37 278.169C1540.37 278.169 1543.37 373.4 1540.37 387.315C1539 394.679 1536.61 401.815 1533.26 408.515C1545.77 414.865 1559.14 419.355 1572.95 421.842C1588.81 424.759 1605.07 424.759 1620.93 421.842C1626.05 420.816 1631.09 419.469 1636.04 417.809C1637.81 386.266 1638.06 321.386 1638.06 309.782C1638.08 300.755 1636.66 276.623 1635.52 259.119Z" fill="#8E4F33"/>
<path d="M1663.79 404.872L1652.32 255.778L1635.52 259.119C1636.66 276.623 1638.08 300.684 1638.08 309.782C1638.08 321.386 1637.76 386.195 1636.06 417.809C1638.6 416.956 1641.09 416.031 1643.43 415.125C1650.5 412.297 1657.31 408.867 1663.79 404.872Z" fill="#6D3621"/>
<path d="M1656.08 306.619C1649.66 311.643 1642.66 315.89 1635.24 319.272C1626.76 323.164 1605.62 332.511 1578.96 327.695C1566.27 325.362 1554.24 320.292 1543.71 312.839L1652.1 255.778L1656.08 306.619Z" fill="#6D3621"/>
<path d="M1485.19 172.453C1485.19 172.453 1477.38 100.448 1485.19 72.9393C1493.01 45.4308 1510.53 35.7993 1520.29 35.7815C1530.04 35.7638 1529.03 34.8219 1541.24 35.7815C1541.24 35.7815 1650.01 46.4437 1673.43 54.2804C1682.1 57.177 1689.74 64.7472 1695.9 73.117C1701.61 80.8869 1705.56 89.8047 1707.48 99.2525C1709.4 108.7 1709.24 118.452 1707.01 127.832L1684.92 221.588" fill="#2A1E5C"/>
<path d="M1518.24 89.4123C1491.15 110.506 1487.88 144.5 1485.19 172.453C1483.75 187.274 1479.97 233.512 1507.57 278.578C1518.92 297.095 1526.99 312.821 1544.19 317.157C1634.35 339.886 1634.33 284.94 1655.03 258.817C1671.03 238.683 1677.76 192.694 1680.2 147.557C1683.29 90.6918 1620.76 73.259 1573.95 72.9214C1564.32 72.9569 1539.53 72.8325 1518.24 89.4123Z" fill="#8E4F33"/>
<path d="M1708.52 204.546C1713.65 218.194 1708.25 235.075 1693.13 238.594C1678.91 241.881 1662.92 231.681 1657.7 218.034C1652.47 204.386 1660.83 194.31 1674.47 189.157C1681.03 186.684 1688.3 186.916 1694.68 189.801C1701.07 192.687 1706.04 197.991 1708.52 204.546Z" fill="#8E4F33"/>
<path d="M1691.03 227.896C1699.56 225.924 1702.62 216.399 1699.72 208.704C1698.92 206.568 1697.63 204.645 1695.96 203.085C1694.3 201.526 1692.29 200.372 1690.11 199.713C1689.62 199.578 1689.12 199.555 1688.62 199.644C1688.13 199.734 1687.66 199.934 1687.26 200.23C1686.85 200.526 1686.52 200.909 1686.28 201.352C1686.05 201.795 1685.92 202.285 1685.9 202.787L1684.87 224.733C1684.84 225.207 1684.91 225.682 1685.08 226.126C1685.25 226.57 1685.51 226.974 1685.84 227.31C1686.18 227.645 1686.58 227.906 1687.03 228.075C1687.47 228.243 1687.95 228.316 1688.42 228.287C1689.3 228.251 1690.18 228.12 1691.03 227.896Z" fill="#6D3621"/>
<path d="M1690.66 173.502H1690.64C1675.81 173.502 1663.79 185.524 1663.79 200.353V228.928C1663.79 243.757 1675.81 255.779 1690.64 255.779H1690.66C1705.49 255.779 1717.51 243.757 1717.51 228.928V200.353C1717.51 185.524 1705.49 173.502 1690.66 173.502Z" fill="#C6D4EC"/>
<path d="M1685.61 206.466C1689.5 192.431 1691.63 177.968 1691.96 163.408C1692.22 152.124 1692.49 139.329 1688.03 123.354C1681.35 99.6042 1667.12 78.6725 1647.5 63.7164C1639.38 57.5856 1625.8 47.3499 1605.19 44.4178C1601.76 43.9238 1598.3 43.6743 1594.83 43.6714C1578.34 43.6714 1564.39 49.3579 1548.25 55.9507C1530.93 63.0589 1517.25 68.5855 1504.56 82.5175C1491.87 96.4494 1487.5 110.737 1481.46 130.497C1477.52 143.254 1474.74 156.338 1473.14 169.592C1469.79 148.793 1472.41 127.47 1480.7 108.102C1488.99 88.7335 1502.61 72.1157 1519.97 60.1801C1542.82 44.452 1569.86 35.9067 1597.6 35.6392C1617.8 35.37 1637.64 40.9223 1654.77 51.6326C1703.13 82.2154 1720.51 150.027 1695.51 207.905L1685.61 206.466Z" fill="#C6D4EC"/>
<path d="M451.059 216.057L436.577 294.708C435.952 297.768 436.113 300.936 437.045 303.916C437.977 306.897 439.65 309.592 441.908 311.75C454.897 323.247 470.339 332.541 478.975 334.016C483.592 334.701 488.257 335.016 492.924 334.958C501.364 334.958 508.277 327.335 508.383 317.774L509.218 233.56L451.059 216.057Z" fill="#FFC3A3"/>
<path d="M451.058 216.057L436.576 294.708C435.956 297.768 436.12 300.935 437.052 303.914C437.984 306.894 439.654 309.589 441.907 311.75C447.526 316.72 453.527 321.242 459.854 325.273L463.052 219.682L451.058 216.057Z" fill="#F5AC85"/>
<path d="M492.567 0.040152C461.63 -0.937218 439.845 16.2467 436.806 16.9042C394.533 25.9493 370.793 69.5933 363.685 82.6546C355.351 97.9549 337.457 130.866 345.666 173.283C355.511 224.231 395.528 250.638 403.435 255.649C403.435 255.649 400.041 253.517 425.54 234.769C451.04 216.021 499.728 205.075 499.728 205.075C552.823 192.884 581.468 202.107 598.136 214.617C605.563 220.215 612.973 228.265 617.487 225.919C624.719 222.152 616.509 195.852 608.602 155.335C601.032 116.969 603.271 107.355 600.641 94.6674C600.641 94.6674 599.468 89.8516 597.709 84.9114C584.862 48.7132 575.142 35.3143 571.161 30.9251C570.305 30.0364 569.365 29.233 568.354 28.526C562.561 24.4033 544.685 1.65726 492.567 0.040152Z" fill="#372E72"/>
<path d="M385.56 188.157C374.898 179.681 371.184 163.545 381.633 153.505C391.459 144.069 409.211 144.62 419.873 153.061C430.534 161.502 428.757 173.568 420.21 184.23C418.194 186.765 415.698 188.877 412.865 190.446C410.032 192.015 406.917 193.011 403.699 193.376C400.481 193.74 397.222 193.467 394.11 192.572C390.998 191.676 388.092 190.176 385.56 188.157Z" fill="#FFC3A3"/>
<path d="M388.491 161.129C382.592 166.78 384.706 175.878 390.712 180.676C392.381 182.001 394.332 182.926 396.415 183.379C398.497 183.832 400.656 183.801 402.725 183.288C403.175 183.163 403.591 182.938 403.943 182.63C404.294 182.321 404.572 181.938 404.754 181.507C404.937 181.077 405.02 180.611 404.998 180.144C404.976 179.677 404.849 179.221 404.626 178.81L394.959 160.702C394.75 160.323 394.466 159.99 394.123 159.725C393.78 159.46 393.387 159.268 392.967 159.162C392.547 159.055 392.11 159.036 391.682 159.105C391.255 159.175 390.846 159.331 390.481 159.565C389.769 160.02 389.103 160.544 388.491 161.129Z" fill="#F5AC85"/>
<path d="M595.682 116.471C604.78 172.11 579.689 250.798 524.035 259.878C468.381 268.959 401.177 188.264 392.079 132.625C382.981 76.9857 427.351 68.7936 482.988 59.7662C538.624 50.7389 586.602 60.8324 595.682 116.471Z" fill="#FFC3A3"/>
<path d="M478.672 44.7857C488.943 54.3817 474.443 85.9419 463.515 102.451C457.971 110.803 443.257 132.323 414.968 141.545C402.53 145.562 387.71 150.431 381.615 143.927C369.176 130.617 396.63 72.8452 442.031 50.5434C447.877 47.6468 470.054 36.7358 478.672 44.7857Z" fill="#372E72"/>
</svg>
