<svg width="1200" height="1200" viewBox="0 0 1200 1200" fill="none" xmlns="http://www.w3.org/2000/svg">
<path d="M572.783 130L129.063 343.68C118.42 348.806 109.439 356.831 103.152 366.832C96.865 376.834 93.5277 388.406 93.5234 400.22V1013.46C93.5234 1021.7 95.1469 1029.86 98.3012 1037.47C101.455 1045.09 106.079 1052 111.907 1057.83C117.735 1063.66 124.653 1068.28 132.268 1071.43C139.882 1074.58 148.043 1076.2 156.283 1076.2H1043.72C1051.96 1076.2 1060.12 1074.58 1067.74 1071.43C1075.35 1068.28 1082.27 1063.66 1088.1 1057.83C1093.93 1052 1098.55 1045.09 1101.71 1037.47C1104.86 1029.86 1106.48 1021.7 1106.48 1013.46V400.22C1106.48 388.406 1103.14 376.834 1096.85 366.832C1090.57 356.831 1081.59 348.806 1070.94 343.68L627.223 130C618.731 125.912 609.428 123.79 600.003 123.79C590.579 123.79 581.275 125.912 572.783 130V130Z" stroke="#8E82D3" stroke-width="31.38" stroke-miterlimit="10"/>
<path d="M599.62 627.24H654.94V517.5C654.94 503.03 649.192 489.152 638.96 478.92C628.728 468.688 614.85 462.94 600.38 462.94H276.62C269.451 462.935 262.351 464.342 255.725 467.081C249.1 469.821 243.08 473.838 238.007 478.905C232.935 483.971 228.911 489.988 226.164 496.61C223.418 503.232 222.003 510.331 222 517.5V683.76C222 690.928 223.412 698.025 226.155 704.647C228.898 711.269 232.918 717.286 237.986 722.354C243.054 727.422 249.071 731.442 255.693 734.185C262.315 736.928 269.412 738.34 276.58 738.34H322.46L382.98 791.54L401.4 738.34H545.02V681.8C545.02 674.632 546.433 667.534 549.177 660.912C551.921 654.289 555.944 648.273 561.014 643.206C566.085 638.139 572.104 634.121 578.729 631.382C585.353 628.642 592.452 627.235 599.62 627.24Z" fill="#B0A8E1"/>
<path d="M923.383 627.24H654.943V683.76C654.945 690.926 653.536 698.023 650.795 704.645C648.054 711.267 644.036 717.284 638.969 722.352C633.903 727.421 627.887 731.442 621.266 734.185C614.646 736.928 607.549 738.34 600.383 738.34H545.063V848C545.06 855.166 546.469 862.263 549.21 868.885C551.951 875.507 555.969 881.524 561.036 886.592C566.102 891.661 572.118 895.682 578.739 898.425C585.359 901.168 592.456 902.58 599.623 902.58H798.562L816.982 955.78L877.503 902.58H923.383C930.553 902.585 937.655 901.177 944.282 898.437C950.908 895.696 956.93 891.677 962.002 886.608C967.075 881.539 971.099 875.52 973.844 868.896C976.589 862.271 978.003 855.171 978.003 848V681.8C978.003 674.63 976.589 667.53 973.844 660.907C971.098 654.283 967.074 648.266 962.001 643.199C956.928 638.132 950.907 634.114 944.28 631.376C937.654 628.637 930.552 627.232 923.383 627.24Z" fill="#A8C7E1"/>
<path d="M654.942 683.76V627.24H599.622C585.152 627.24 571.275 632.989 561.043 643.221C550.811 653.453 545.062 667.33 545.062 681.8V738.34H600.382C607.549 738.34 614.645 736.928 621.266 734.185C627.887 731.442 633.903 727.421 638.969 722.353C644.036 717.284 648.054 711.267 650.795 704.646C653.536 698.024 654.945 690.927 654.942 683.76Z" fill="#3E7CB1"/>
</svg>
