<?xml version="1.0" encoding="UTF-8" standalone="no"?>
<svg
   width="2020"
   height="340"
   viewBox="0 0 2020 340"
   fill="none"
   version="1.1"
   id="svg36"
   sodipodi:docname="textlogo.svg"
   inkscape:version="1.1 (c4e8f9ed74, 2021-05-24)"
   xmlns:inkscape="http://www.inkscape.org/namespaces/inkscape"
   xmlns:sodipodi="http://sodipodi.sourceforge.net/DTD/sodipodi-0.dtd"
   xmlns="http://www.w3.org/2000/svg"
   xmlns:svg="http://www.w3.org/2000/svg">
  <defs
     id="defs40" />
  <sodipodi:namedview
     id="namedview38"
     pagecolor="#ffffff"
     bordercolor="#666666"
     borderopacity="1.0"
     inkscape:pageshadow="2"
     inkscape:pageopacity="0.0"
     inkscape:pagecheckerboard="0"
     showgrid="false"
     inkscape:zoom="0.47392857"
     inkscape:cx="967.44537"
     inkscape:cy="427.27958"
     inkscape:window-width="1920"
     inkscape:window-height="1052"
     inkscape:window-x="0"
     inkscape:window-y="0"
     inkscape:window-maximized="1"
     inkscape:current-layer="svg36"
     width="2400px" />
  <path
     d="m 1759.39,227.62966 c 5.16,0 9.34,-4.18199 9.34,-9.34099 0,-5.15899 -4.18,-9.34099 -9.34,-9.34099 -5.15,0 -9.33,4.182 -9.33,9.34099 0,5.159 4.18,9.34099 9.33,9.34099 z"
     fill="#4e3eb1"
     id="path10"
     style="stroke-width:0.999999" />
  <path
     d="m 1721.68,227.62966 c 5.15,0 9.33,-4.18199 9.33,-9.34099 0,-5.15899 -4.18,-9.34099 -9.33,-9.34099 -5.16,0 -9.34,4.182 -9.34,9.34099 0,5.159 4.18,9.34099 9.34,9.34099 z"
     fill="#4e3eb1"
     id="path12"
     style="stroke-width:0.999999" />
  <path
     d="m 1683.92,227.62966 c 5.16,0 9.34,-4.18199 9.34,-9.34099 0,-5.15899 -4.18,-9.34099 -9.34,-9.34099 -5.15,0 -9.33,4.182 -9.33,9.34099 0,5.159 4.18,9.34099 9.33,9.34099 z"
     fill="#4e3eb1"
     id="path14"
     style="stroke-width:0.999999" />
  <path
     d="m 391.73,332.34452 c -20.52,0.423 -40.783,-4.62199 -58.71,-14.61898 -16.78,-9.49598 -30.63,-23.42297 -40.04,-40.26095 -9.563,-18.26497 -14.558,-38.57894 -14.558,-59.19992 0,-20.62096 4.995,-40.93394 14.558,-59.19991 9.451,-16.75798 23.295,-30.61496 40.04,-40.07395 18.024,-9.56899 38.12,-14.57298 58.52,-14.57298 20.4,0 40.5,5.00399 58.52,14.57298 16.77,9.50999 30.62,23.43396 40.04,40.26094 9.97,18.18498 14.99,38.67195 14.56,59.40993 0.41,20.57996 -4.54,40.91094 -14.37,58.98991 -9.29,16.85498 -23.07,30.79496 -39.81,40.26095 -17.96,9.93699 -38.24,14.91798 -58.75,14.43198 z m 0,-36.99095 c 13.27,0.247 26.35,-3.17999 37.8,-9.90199 10.89,-6.48399 19.77,-15.85998 25.66,-27.08896 6.39,-12.30999 9.59,-26.02097 9.34,-39.88694 0.23,-13.92399 -2.98,-27.68996 -9.34,-40.07395 -5.85,-11.31599 -14.74,-20.77597 -25.66,-27.32396 -11.55,-6.46299 -24.55,-9.85699 -37.78,-9.85699 -13.23,0 -26.23,3.394 -37.777,9.85699 -10.963,6.57099 -19.921,16.01997 -25.9,27.32396 -6.423,12.36198 -9.633,26.14296 -9.33301,40.07395 -0.32299,13.87297 2.88901,27.59895 9.33301,39.88694 6.014,11.21699 14.968,20.58197 25.9,27.08896 11.427,6.72799 24.497,10.15499 37.757,9.90199 z"
     fill="#4e3eb1"
     id="path16"
     style="stroke-width:0.999999" />
  <path
     d="m 872.86,144.30577 c -6.1,-12.65498 -15.85,-23.18296 -28,-30.21895 -12.69,-7.01699 -27,-10.56099 -41.49,-10.27499 -16.53,-0.31 -32.86,3.647 -47.41,11.48898 -9.48,5.21799 -17.84,12.22999 -24.64,20.64498 -5.92,-9.05 -13.92,-16.54598 -23.34,-21.85897 -12.67,-7.01699 -26.96,-10.56199 -41.44,-10.27499 -15.19,-0.296 -30.16,3.685 -43.21,11.48898 -5.24,3.198 -10.1,6.991 -14.47,11.30299 0.08,-2.686 -0.39,-5.36 -1.37,-7.86399 -0.98,-2.503 -2.45,-4.784 -4.32,-6.70799 -2,-1.94 -4.38,-3.45 -6.99,-4.438 -2.61,-0.98799 -5.39,-1.43299 -8.18,-1.30699 -2.75,-0.087 -5.49,0.376 -8.06,1.36299 -2.58,0.986 -4.93,2.476 -6.92,4.382 -1.95,1.994 -3.47,4.37399 -4.45,6.98799 -0.98,2.61399 -1.4,5.40399 -1.24,8.19199 v 182.90075 c 0.09,4.15 1.37,8.18398 3.71,11.61299 2.34,3.42899 5.62,6.10298 9.45,7.69698 3.83,1.594 8.04,2.039 12.11,1.281 4.08,-0.758 7.85,-2.687 10.85,-5.55099 1.92,-1.995 3.42,-4.353 4.41,-6.93599 0.99,-2.582 1.46,-5.338 1.38,-8.10399 V 194.23471 c -0.53,-13.96898 4.5,-27.57697 14,-37.83195 4.5,-4.82799 9.98,-8.64499 16.07,-11.19699 6.09,-2.552 12.65,-3.78199 19.25,-3.60899 6.1,-0.251 12.19,0.733 17.9,2.89199 5.71,2.159 10.92,5.448 15.33,9.67199 8.49,8.34499 12.74,21.15797 12.74,38.43895 v 117.51284 c 0.08,4.15899 1.36,8.20499 3.7,11.64298 2.34,3.438 5.63,6.11899 9.47,7.71499 3.84,1.596 8.06,2.037 12.14,1.27 4.09,-0.767 7.86,-2.709 10.86,-5.58799 1.91,-1.998 3.4,-4.357 4.38,-6.93999 0.99,-2.583 1.45,-5.337 1.36,-8.09999 V 194.23471 c -0.54,-13.92899 4.4,-27.51297 13.76,-37.83195 8.94,-9.07399 21.0199,-14.36599 33.74,-14.78298 12.72,-0.417 25.12,4.07199 34.63,12.54098 8.49,8.34499 12.74,21.15797 12.74,38.43895 v 117.51284 c 0.09,4.15 1.37,8.18398 3.71,11.61299 2.34,3.42899 5.62,6.10298 9.45,7.69698 3.83,1.594 8.04,2.039 12.11,1.281 4.08,-0.758 7.85,-2.687 10.85,-5.55099 1.91,-1.998 3.4,-4.357 4.39,-6.93999 0.98,-2.583 1.44,-5.337 1.35,-8.09999 V 192.59971 c 0.39,-16.68398 -3.14,-33.22695 -10.31,-48.29394 z"
     fill="#4e3eb1"
     id="path18"
     style="stroke-width:0.999999" />
  <path
     d="m 977.35,69.29588 c -6.34,0.012 -12.48,-2.177 -17.39,-6.19299 -4.91,-4.017 -8.27,-9.61299 -9.52,-15.83498 -1.25,-6.22099 -0.3,-12.68199 2.68,-18.28198 2.99,-5.59899 7.82,-9.99098 13.67,-12.42498 5.85,-2.43499 12.37,-2.761 18.44,-0.924 6.07,1.836 11.31,5.723 14.84,10.99598 3.52,5.27399 5.11,11.60799 4.49,17.92298 -0.62,6.314 -3.4,12.21898 -7.89,16.70598 -2.49,2.599 -5.49,4.654 -8.82,6.03599 -3.32,1.383 -6.9,2.06299 -10.5,1.998 z m 0,261.55465 c -2.77,0.084 -5.53,-0.40001 -8.1,-1.42101 -2.58,-1.02199 -4.92,-2.55899 -6.88,-4.51799 -1.96,-1.96 -3.51,-4.3 -4.53,-6.87599 -1.03,-2.57699 -1.52,-5.33699 -1.44,-8.11 V 126.8378 c -0.12,-2.815 0.35,-5.62299 1.38,-8.24499 1.03,-2.62199 2.59,-5 4.59,-6.98099 2.93,-3.067 6.72,-5.17 10.86,-6.029 4.15,-0.85899 8.46,-0.434 12.36,1.21901 3.91,1.65299 7.21,4.45499 9.48,8.03399 2.27,3.57899 3.4,7.76499 3.24,12.00198 v 182.90175 c 0.08,2.75499 -0.38,5.49999 -1.37,8.07399 -0.98,2.575 -2.47,4.92699 -4.37,6.91799 -1.99,1.991 -4.37,3.547 -6.99,4.56799 -2.62,1.022 -5.4201,1.486 -8.23,1.364 z"
     fill="#4e3eb1"
     id="path20"
     style="stroke-width:0.999999" />
  <path
     d="m 1272.61,227.72267 c 1.75,-1.662 3.13,-3.672 4.05,-5.9 0.93,-2.228 1.37,-4.62499 1.32,-7.03699 0.39,-19.79598 -3.76,-39.41695 -12.14,-57.35492 -7.69,-16.13099 -19.87,-29.69096 -35.09,-39.04695 -16.68,-9.73599 -35.76,-14.59098 -55.07,-14.01198 -20.19,-0.402 -40.11,4.648 -57.68,14.61898 -16.52,9.54599 -30.09,23.47996 -39.2,40.26094 -9.67,18.27598 -14.49,38.73395 -14,59.40993 -0.4,20.65996 4.8,41.04394 15.03,58.98991 9.84,16.98898 24.18,30.92296 41.44,40.26095 15.29,8.10298 32.08,12.96098 49.33,14.27098 17.25,1.31 34.58,-0.957 50.91,-6.65799 12.51,-3.981 24.24,-10.09599 34.67,-18.07498 2.11,-1.37299 3.82,-3.27 4.98,-5.50499 1.15,-2.236 1.7,-4.73199 1.6,-7.24599 -0.25,-2.639 -1.03,-5.19999 -2.3,-7.52799 -1.26,-2.328 -2.99,-4.375 -5.07,-6.017 -3.48,-2.99898 -7.97,-4.55298 -12.55,-4.34298 -4.83,0.13799 -9.49,1.76899 -13.35,4.66998 -6.6,4.699 -13.87,8.38299 -21.56,10.92999 -8.37,3.024 -17.19,4.603 -26.09,4.67 -14.47,0.286 -28.77,-3.258 -41.44,-10.27499 -9.9,-5.547 -18.41,-13.27998 -24.88,-22.61097 -6.47,-9.33198 -10.72,-20.01597 -12.45,-31.24096 h 156.15 c 2.46,0.057 4.92,-0.376 7.22,-1.274 2.3,-0.898 4.39,-2.24299 6.17,-3.95798 z m -136.97,-77.90591 c 12.13,-7.10399 26,-10.66398 40.04,-10.27498 11.94,-0.488 23.75,2.598 33.93,8.86299 10.17,6.26399 18.25,15.42398 23.19,26.30696 3.75,7.984 6.21,16.51298 7.28,25.26797 H 1103.4 c 1.32,-7.61699 3.68,-15.01698 7,-21.99897 5.51,-11.63798 14.28,-21.42197 25.24,-28.16397 z"
     fill="#4e3eb1"
     id="path22"
     style="stroke-width:0.999999" />
  <path
     d="m 1444.25,332.34452 c -19.83,0.36999 -39.39,-4.64599 -56.59,-14.51598 -17.21,-9.86899 -31.42,-24.22197 -41.13,-41.53095 -10,-17.82797 -15.24,-37.93594 -15.21,-58.38291 V 30.62293 c -0.11,-2.80999 0.37,-5.61199 1.4,-8.22699 1.04,-2.614 2.61,-4.98199 4.62,-6.95199 2.92,-3.064 6.7,-5.16499 10.85,-6.02499 4.14,-0.861 8.45,-0.439 12.34,1.208 3.9,1.64599 7.21,4.441 9.48,8.01298 2.28,3.571 3.41,7.75099 3.26,11.98299 v 110.97385 c 9.51,-11.43198 21.33,-20.72698 34.67,-27.27596 15.53,-7.36999 32.63,-10.77499 49.79,-9.91099 17.16,0.864 33.83,5.96999 48.54,14.86098 15.89,9.99999 28.86,24.03696 37.57,40.68195 9.37,17.92497 14.11,37.91894 13.76,58.14891 0.31,20.45097 -4.86,40.61195 -14.98,58.38293 -9.82,17.35098 -24.15,31.72095 -41.47,41.58694 -17.32,9.86698 -36.98,14.86297 -56.9,14.45998 z m 0,-36.99095 c 13.14,0.21199 26.08,-3.284 37.33,-10.08898 11,-6.768 20.01,-16.34298 26.09,-27.74297 6.52,-12.11799 9.85,-25.70296 9.66,-39.46695 0.25,-13.77098 -3.07,-27.37196 -9.66,-39.46695 -6.18,-11.21998 -15.17,-20.63697 -26.09,-27.32295 -11.33,-6.605 -24.21,-10.08399 -37.33,-10.08399 -13.12,0 -26,3.47899 -37.33,10.08399 -10.99,6.60499 -20,16.04197 -26.09,27.32295 -6.41,12.15099 -9.62,25.73197 -9.33,39.46695 -0.23,13.72899 2.98,27.29697 9.33,39.46695 6.02,11.53799 15.11,21.18097 26.27,27.85896 11.17,6.67799 23.96,10.12999 36.96,9.97299 z"
     fill="#8e82d2"
     id="path24"
     style="stroke-width:0.999999" />
  <path
     d="m 1721.86,332.34452 c -20.51,0.43 -40.78,-4.616 -58.7,-14.61898 -16.78,-9.49598 -30.63,-23.42297 -40.04,-40.26095 -9.6,-18.25498 -14.61,-38.57294 -14.61,-59.19992 0,-20.62697 5.01,-40.94394 14.61,-59.19991 9.45,-16.75798 23.29,-30.61496 40.04,-40.07395 18.02,-9.56899 38.11,-14.57298 58.52,-14.57298 20.4,0 40.49,5.00399 58.52,14.57298 16.75,9.53699 30.59,23.45397 40.04,40.26094 9.5,18.28298 14.47,38.58995 14.47,59.19993 0,20.60997 -4.97,40.91694 -14.47,59.19991 -9.3,16.84498 -23.08,30.78096 -39.81,40.26095 -17.91,9.89898 -38.11,14.87797 -58.57,14.43198 z m 0,-36.99095 c 13.28,0.247 26.36,-3.17999 37.8,-9.90199 10.89,-6.49699 19.77,-15.86998 25.67,-27.08896 6.38,-12.30999 9.59,-26.02097 9.33,-39.88694 0.24,-13.92399 -2.97,-27.68996 -9.33,-40.07395 -5.87,-11.30599 -14.75,-20.76298 -25.67,-27.32396 -11.55,-6.46299 -24.56,-9.85599 -37.8,-9.85599 -13.23,0 -26.24,3.393 -37.8,9.85599 -10.93,6.59299 -19.87,16.03798 -25.85,27.32396 -6.42,12.36198 -9.63,26.14296 -9.33,40.07395 -0.32,13.87297 2.89,27.59895 9.33,39.88694 6.02,11.19999 14.95,20.56097 25.85,27.08896 11.45,6.722 24.53,10.14899 37.8,9.90199 z"
     fill="#8e82d2"
     id="path26"
     style="stroke-width:0.999999" />
  <path
     d="m 2005.41,295.35357 c -1.53,-1.82299 -3.45,-3.284 -5.61,-4.277 -2.16,-0.993 -4.52,-1.495 -6.9,-1.46799 h -14 c -4.3,0.004 -8.55,-0.999 -12.4,-2.929 -3.84,-1.92999 -7.19,-4.73399 -9.76,-8.18698 -6.19,-7.819 -9.4,-17.58699 -9.06,-27.55697 V 149.44376 h 34.91 c 5.13,0.22601 10.15,-1.54899 14,-4.95098 1.73,-1.547 3.1,-3.45 4.03,-5.578 0.93,-2.128 1.38,-4.43199 1.34,-6.75299 0.1,-2.452 -0.32,-4.89899 -1.25,-7.17199 -0.92,-2.273 -2.33,-4.32 -4.12,-5.99899 -3.84,-3.419 -8.87,-5.19699 -14,-4.95099 h -34.86 V 54.9099 c 0,-2.698 -0.53,-5.371 -1.56,-7.86399 -1.03,-2.493 -2.55,-4.75899 -4.45,-6.66699 -1.91,-1.909 -4.17,-3.42199 -6.67,-4.455 -2.49,-1.033 -5.16,-1.564 -7.85,-1.564 -2.7,0 -5.37,0.531 -7.86,1.564 -2.49,1.03301 -4.76,2.546 -6.66,4.455 -1.91,1.908 -3.42,4.17399 -4.45,6.66699 -1.04,2.49299 -1.57,5.16599 -1.57,7.86399 v 59.41092 H 1888 c -5.1,-0.32301 -10.12,1.352 -14,4.66999 -1.78,1.67699 -3.18,3.71699 -4.09,5.98199 -0.92,2.265 -1.34,4.701 -1.23,7.14299 -0.06,2.325 0.38,4.636 1.3,6.773 0.92,2.13699 2.29,4.04899 4.02,5.60399 3.85,3.40199 8.87,5.17699 14,4.95098 h 18.66 v 101.49187 c -0.25,14.13498 2.95,28.11696 9.34,40.72795 5.94,11.64698 14.88,21.49696 25.9,28.53795 11.03,7.02399 23.88,10.66099 36.96,10.46199 h 7.37 c 6.32,0.293 12.54,-1.752 17.45,-5.74499 2.17,-1.79699 3.91,-4.062 5.08,-6.62599 1.17,-2.564 1.75,-5.361 1.69,-8.17999 0.26,-5.383 -1.54,-10.66299 -5.04,-14.75898 z"
     fill="#8e82d2"
     id="path28"
     style="stroke-width:0.999999" />
  <path
     d="m 207.159,151.68576 c -8.06,-15.05498 -20.338,-27.42495 -35.326,-35.59094 -15.622,-8.24099 -33.07,-12.40199 -50.72701,-12.09599 -17.033,-0.252 -33.84999,3.847 -48.85999,11.90998 -7.663,4.18 -14.714,9.39799 -20.953,15.50598 V 30.62293 c -0.092,-4.124 -1.373,-8.13399 -3.69,-11.54698 -2.316,-3.412 -5.569,-6.081 -9.367,-7.68499 -3.79801,-1.604 -7.97801,-2.075 -12.036,-1.356 -4.059,0.719 -7.824,2.59699 -10.84,5.40799 -1.989,1.979 -3.54301,4.35099 -4.563,6.96499 -1.021,2.613 -1.485,5.41099 -1.364,8.21499 v 279.48962 c 0.085,4.15 1.375,8.18398 3.71099,11.61299 2.33701,3.42899 5.619,6.10298 9.44801,7.69698 3.829,1.594 8.038,2.039 12.115,1.281 4.07699,-0.758 7.845,-2.687 10.846,-5.55099 1.91,-1.998 3.402,-4.357 4.388,-6.93999 0.985,-2.583 1.445,-5.337 1.352,-8.09999 V 194.23471 c -0.146,-9.62199 2.727,-19.04698 8.213,-26.94897 5.719,-7.97898 13.33899,-14.40098 22.167,-18.68297 9.71199,-4.75699 20.408,-7.15699 31.22,-7.00599 11.558,-0.212 23.008,2.249 33.46,7.19299 9.802,4.83099 17.93,12.49398 23.333,21.99797 6.187,11.76899 9.15,24.96697 8.587,38.25295 v 101.07186 c 0,5.57499 2.212,10.91999 6.151,14.86198 3.938,3.94199 9.27899,6.15599 14.84899,6.15599 5.56901,0 10.91101,-2.214 14.84901,-6.15599 3.938,-3.94199 6.151,-9.28699 6.151,-14.86198 V 209.04069 c 0.565,-19.92298 -3.94801,-39.66095 -13.114,-57.35493 z"
     fill="#4e3eb1"
     id="path30"
     style="stroke-width:0.999999" />
  <path
     d="m 423.23,286.01258 18.39,-12.33099 5.92,28.35097 z"
     fill="#ffffff"
     id="path32"
     style="stroke-width:0.999999" />
  <path
     d="m 1696.11,286.01258 -18.38,-12.33099 -5.93,28.35097 z"
     fill="#ffffff"
     id="path34"
     style="stroke-width:0.999999" />
</svg>
